<svg width="101" height="102" viewBox="0 0 101 102" fill="none" xmlns="http://www.w3.org/2000/svg">
<g clip-path="url(#clip0_2_27597)">
<path d="M51.2417 54.4812C50.6929 55.3348 49.1074 51.8897 47.8269 53.7596C47.5932 54.095 46.6481 57.0523 48.6604 57.9059C50.9774 58.9019 52.5119 56.4528 53.4266 51.3308C53.4774 51.0767 53.447 54.1153 53.579 54.0238C53.7111 53.9324 53.8433 53.9222 53.9855 53.9832C54.1278 54.0441 54.2396 54.1661 54.3108 54.3389C54.3921 54.5116 54.4124 54.7555 54.3921 55.0502C54.3311 55.3755 54.2294 55.7718 54.0872 56.2291C53.9449 56.6966 52.3188 59.6133 49.2294 59.5829C46.079 59.5625 44.4733 56.1681 44.3208 55.6397C44.1684 55.1113 44.0871 54.6031 44.0973 54.1051C44.1074 53.6072 44.1786 53.1499 44.3208 52.7332C44.4631 52.3166 44.6258 52.0319 44.8087 51.849C44.9916 51.6763 45.8757 50.101 49.1278 50.9446C52.2579 51.7779 51.4652 54.1458 51.2417 54.4812Z" fill="#3C4A41"/>
<path d="M58.9627 45.2089C58.9627 45.2089 56.3712 56.0321 56.3102 56.4691C56.1781 57.5159 56.1781 58.0647 57.0216 58.3492C58.231 58.7557 59.3082 56.7943 59.3082 56.7943C60.7615 53.7658 60.0908 53.5219 62.4993 53.6134C62.8347 53.6235 61.7879 54.8939 61.7575 55.1886C61.7269 55.341 61.6456 55.6561 61.4932 56.1439C61.3408 56.6317 61.1172 57.1297 60.8224 57.648C60.5277 58.1561 60.1619 58.6135 59.7453 59.0199C59.3184 59.4163 58.8611 59.6196 58.3631 59.6196C57.3367 59.6196 56.483 59.335 55.8021 58.7761C55.1212 58.2171 54.5622 57.5159 54.1355 56.6724C53.7086 55.8288 53.2919 54.8837 53.2513 53.9691C53.1192 50.6662 55.0704 43.5523 55.2737 43.3288C55.4769 43.1052 55.731 42.9934 56.0562 42.9934C56.3509 42.9934 56.7371 43.1865 57.2554 43.3491C59.4607 44.0402 58.9627 45.2089 58.9627 45.2089ZM82.6215 54.7821C82.8145 54.3349 83.0991 54.1927 83.4649 54.3655C83.8308 54.5382 83.973 54.904 83.8918 55.4528C83.8409 55.8288 83.7495 56.2252 83.597 56.6317C83.4446 57.0484 82.7028 59.4265 80.4873 59.4265C78.4751 59.4265 77.2149 56.8045 76.971 56.3471C76.7373 55.9203 76.5442 55.4528 76.3816 54.9346C76.2291 54.4264 76.1275 53.9589 76.097 53.5321C76.0563 53.1053 76.0767 52.7597 76.1478 52.4853C76.2088 52.2109 76.3511 52.089 76.5746 52.1093C76.7779 52.1602 77.0117 52.2312 77.2759 52.3126C77.54 52.404 77.784 52.4955 78.0178 52.6073C78.2616 52.7191 78.4751 52.8512 78.6783 53.0037C78.8816 53.156 79.034 53.3288 79.1458 53.5321C79.2576 53.7354 79.3389 54.0301 79.3999 54.4162C79.4608 54.8024 79.5218 55.1988 79.593 55.5951C79.6641 55.9914 79.725 56.3573 79.7962 56.6825C79.8674 57.0077 79.969 57.2109 80.1215 57.2821C80.2332 57.333 80.3856 57.3024 80.5991 57.1906C80.8125 57.0789 81.036 56.9061 81.2698 56.6825C81.5036 56.4589 81.7474 56.1845 81.9914 55.8594C82.225 55.5443 82.4385 55.1886 82.6215 54.7821Z" fill="#3C4A41"/>
<path d="M51.5253 47.8516C52.9887 47.7399 54.4115 47.618 55.8038 47.4553C57.1961 47.3029 56.1594 47.374 57.2774 47.2318C58.3953 47.0895 59.3302 46.9676 60.062 46.8558C60.8038 46.7542 61.2611 46.6932 61.4339 46.6932C61.7591 46.683 62.1453 46.7338 62.562 46.8558C62.9888 46.9777 63.3851 47.1199 63.751 47.3029C64.1168 47.4756 64.4217 47.6687 64.6555 47.872C64.8892 48.0753 64.9603 48.2684 64.879 48.4513C64.8181 48.5529 64.4624 48.6241 63.7814 48.6647C63.1107 48.7054 62.2164 48.7358 61.0985 48.7663C59.9806 48.7968 58.69 48.8273 57.2266 48.8578C55.7631 48.8883 59.6859 48.5123 54.8688 48.7561C50.0416 49.0102 51.5253 47.8516 51.5253 47.8516ZM38.4256 51.1952C38.8118 51.1952 39.1777 51.2867 39.5231 51.4798C39.8687 51.6729 40.1025 51.9371 40.2041 52.2623C40.946 52.4249 41.5151 52.7704 41.9012 53.2888C42.2875 53.807 42.511 54.4066 42.572 55.0672C43.2732 55.1485 44.6147 54.3761 44.6147 52.8517C44.6147 52.5265 44.9907 53.8375 44.8585 54.7725C44.8281 55.0163 44.1574 56.866 42.2062 57.0794C41.8606 57.12 41.698 57.4554 41.5455 57.8314C41.4337 58.0957 40.4886 59.5591 38.1512 59.5591C36.7183 59.5591 35.702 58.2583 35.326 57.7908C34.95 57.3233 34.7467 56.805 34.7365 56.2258C34.6959 55.677 34.7671 55.1078 34.9296 54.5083C35.0922 53.9188 35.3362 53.3701 35.6512 52.8822C35.9663 52.3843 36.3626 51.9879 36.8301 51.6627C37.2772 51.3578 37.8159 51.1952 38.4256 51.1952ZM37.5212 58.1261C37.7752 58.4514 38.202 58.4514 38.7914 58.1261C39.3809 57.801 39.9196 57.303 40.4073 56.6119C39.9094 56.2867 39.4622 55.8599 39.0455 55.3111C38.6289 54.7725 38.3037 54.1322 38.07 53.4107C37.5415 54.3355 37.2061 55.2501 37.074 56.1648C36.952 57.0693 37.0943 57.7298 37.5212 58.1261ZM63.9542 51.1952C64.3405 51.1952 64.7062 51.2867 65.0518 51.4798C65.3974 51.6729 65.6311 51.9371 65.7328 52.2623C66.4746 52.4249 67.0336 52.7704 67.4299 53.2888C67.816 53.807 68.0397 54.4066 68.1006 55.0672C68.8018 55.1485 70.1433 54.3761 70.1433 52.8517C70.1433 52.5265 70.5194 53.8375 70.3872 54.7725C70.3567 55.0163 69.686 56.866 67.7347 57.0794C67.3893 57.12 67.2266 57.4554 67.0742 57.8314C66.9624 58.0957 66.0173 59.5591 63.6798 59.5591C62.2469 59.5591 61.2307 58.2583 60.8547 57.7908C60.4787 57.3233 60.2753 56.805 60.2652 56.2258C60.2347 55.677 60.2956 55.1078 60.4583 54.5083C60.6209 53.9188 60.8648 53.3701 61.1798 52.8822C61.4949 52.3843 61.8912 51.9879 62.3587 51.6627C62.816 51.3578 63.3445 51.1952 63.9542 51.1952ZM63.0497 58.1261C63.3038 58.4514 63.7307 58.4514 64.3201 58.1261C64.9096 57.801 65.4482 57.303 65.936 56.6119C65.438 56.2867 64.9806 55.8599 64.5742 55.3111C64.1576 54.7725 63.8323 54.1322 63.5985 53.4107C63.0701 54.3355 62.7347 55.2501 62.6027 56.1648C62.4806 57.0693 62.623 57.7298 63.0497 58.1261Z" fill="#3C4A41"/>
<path d="M77.3152 54.4078C77.0915 54.2553 76.0753 51.9585 76.1464 52.4972C76.2684 53.3814 74.0936 58.3 72.4473 57.4566C70.7399 56.5826 71.3903 53.8387 71.4818 53.6964C71.9188 52.9952 74.8253 49.489 76.0245 42.5073C76.1464 41.8162 76.4208 39.1333 73.6363 38.6759C70.6586 38.1881 69.9777 39.6922 69.683 40.3426C68.5143 42.9849 68.9106 52.3752 69.9167 56.3082C70.1403 57.1923 71.3192 59.4383 72.8944 59.4383C75.4249 59.4383 76.7155 56.8672 76.9086 56.4504C77.1018 56.0338 77.2847 55.6273 77.4371 55.2309C77.5896 54.8346 77.5387 54.5602 77.3152 54.4078ZM71.8679 45.8305C71.9086 45.0987 71.9492 44.3772 71.9899 43.6658C72.0305 42.9646 72.1118 42.3345 72.2236 41.7755C72.3355 41.2166 72.4777 40.7796 72.6708 40.4544C72.8537 40.1292 73.0875 39.9768 73.3416 39.9869C73.7481 40.0174 74.0225 40.302 74.1648 40.8203C74.307 41.3386 74.3476 41.989 74.307 42.7613C74.2664 43.5337 74.1342 44.3874 73.931 45.3223C73.7278 46.2573 73.5143 47.1516 73.2907 48.0154C72.9553 49.2959 72.1932 50.8711 72.0305 51.1659C71.9188 48.5439 71.8273 47.2228 71.8679 45.8305ZM93.423 54.4484C93.3214 54.4179 93.2096 54.4382 93.108 54.5094C93.0064 54.5704 92.9047 54.6517 92.8234 54.7533C92.6303 55.109 92.3864 55.3224 92.0713 55.4139C91.7563 55.5053 91.36 55.485 90.8721 55.3529C90.8721 55.0582 90.8112 54.7533 90.7096 54.4484C90.6079 54.1435 90.4454 53.8894 90.2116 53.6557C89.9779 53.3814 89.6526 53.1781 89.2258 53.0561C88.8092 52.9342 88.4534 52.8732 88.1791 52.8732C87.8945 52.9037 87.6607 52.9849 87.4778 53.1374C87.2949 53.2899 87.1729 53.4728 87.1222 53.6964C87.0713 53.92 87.0916 54.174 87.1729 54.4484C87.2543 54.7228 87.4169 54.9972 87.6506 55.2716C87.6303 55.4952 87.5897 55.7696 87.5286 56.0947C87.4676 56.42 87.3863 56.7248 87.2746 56.9992C87.1628 57.2736 87.0307 57.4973 86.8884 57.6699C86.7461 57.8427 86.5632 57.8733 86.3599 57.7411C86.1465 57.6192 85.9941 57.3955 85.8823 57.0805C85.7705 56.7655 85.6892 56.4403 85.6282 56.0846C85.5571 55.6883 85.5266 55.2614 85.5164 54.8041C85.9839 54.1334 86.4514 53.3508 86.9087 52.4769C87.366 51.6028 87.7827 50.678 88.1587 49.7228C88.5348 48.7573 88.8599 47.7919 89.1446 46.8366C89.4291 45.8711 89.6425 44.9666 89.795 44.113C89.9473 43.2593 89.9982 42.4971 89.9575 41.806C89.9169 41.115 89.7644 40.5764 89.49 40.1698C89.2563 39.8243 88.8905 39.5093 88.4128 39.2552C87.925 38.991 87.427 38.7877 86.9087 38.6556C86.3905 38.5235 85.9127 38.432 85.4657 38.4117C85.0185 38.3914 84.6831 38.4219 84.4799 38.5235C83.8498 38.7979 83.3314 39.3772 82.9453 40.2715C82.5591 41.1556 82.2847 42.2024 82.1018 43.3914C81.929 44.5805 81.8274 45.8508 81.8172 47.2025C81.7969 48.554 81.8477 49.8345 81.9493 51.0337C82.0509 52.2329 82.2034 53.2899 82.3762 54.1841C82.5591 55.0886 82.7522 55.6984 82.9757 56.0237C83.2604 56.4504 85.1303 59.4383 87.7319 59.4383C90.1608 59.4383 90.9128 56.5114 90.3335 56.42C92.488 56.735 93.5246 54.4789 93.423 54.4484ZM85.1913 45.9626C85.2319 45.2309 85.2725 44.5093 85.3233 43.7979C85.3742 43.0967 85.4554 42.4666 85.5774 41.9077C85.6994 41.3487 85.862 40.9117 86.0754 40.5865C86.2888 40.2613 86.5327 40.1089 86.8274 40.119C87.2847 40.1495 87.5897 40.4341 87.7522 40.9524C87.9047 41.4707 87.9555 42.1211 87.9047 42.8934C87.8539 43.6658 87.7116 44.5195 87.488 45.4544C87.2543 46.3792 87.0205 47.2837 86.7766 48.1476C86.5327 49.0114 86.2583 49.7838 85.9636 50.4646C85.6689 51.1455 85.425 51.6435 85.242 51.9281C85.1506 49.7025 85.1303 47.7106 85.1913 45.9626ZM89.0835 54.6415C89.0022 54.5704 88.9209 54.4992 88.8498 54.4281C88.7684 54.3569 88.7075 54.2858 88.6567 54.2248C88.6059 54.1638 88.5652 54.1029 88.5551 54.0521C88.5348 54.0013 88.5449 53.9606 88.5754 53.9301C88.6262 53.8793 88.6872 53.8793 88.7583 53.9098C88.8295 53.9403 88.9108 53.9911 89.0022 54.0724C89.0835 54.1435 89.175 54.2451 89.2563 54.3569C89.3376 54.4688 89.4189 54.5805 89.5002 54.6822C89.5815 54.7838 89.6425 54.8854 89.6933 54.987C89.7441 55.0785 89.7746 55.1496 89.795 55.2005C89.5104 54.9972 89.2766 54.8142 89.0835 54.6415Z" fill="#3C4A41"/>
<path d="M79.228 48.1442C79.228 48.9775 78.5776 49.6482 77.7747 49.6482C76.9719 49.6482 76.3215 48.9775 76.3215 48.1442C76.3215 47.3109 76.9719 46.6401 77.7747 46.6401C78.5776 46.6401 79.228 47.3109 79.228 48.1442ZM10.5893 50.2377C10.5893 50.2377 10.5588 50.2986 10.508 50.4206C10.447 50.5426 10.386 50.7052 10.3047 50.9287C10.132 51.3658 9.91855 52.006 9.81692 52.7682C9.7661 53.1543 9.74578 53.5711 9.7661 54.0182C9.77628 54.2418 9.7966 54.4755 9.82708 54.7092C9.84741 54.8312 9.85757 54.9329 9.8779 54.9836C9.89823 55.0649 9.92871 55.1564 9.9592 55.2479C10.2133 55.9694 10.9755 56.8435 12.0324 57.6259C13.0995 58.3984 14.4105 59.1198 15.8637 59.8211C17.3271 60.502 18.9735 61.1728 20.7926 61.437C21.6971 61.5589 22.6321 61.5894 23.567 61.4573C24.0345 61.3963 24.4918 61.2947 24.9491 61.1525C25.4065 61.0203 25.8435 60.8475 26.2703 60.6341C27.124 60.2174 27.8963 59.6382 28.5264 58.9471C29.1565 58.256 29.6544 57.4532 30.0203 56.6097C30.2032 56.1828 30.3557 55.756 30.4878 55.3089C30.6199 54.8617 30.7114 54.4348 30.8333 53.9268L30.9248 53.5609L30.996 53.2153C31.0467 52.9817 31.1077 52.758 31.1483 52.5243C31.189 52.2905 31.25 52.0569 31.2907 51.8231C31.3313 51.5893 31.372 51.3556 31.4126 51.132C31.7378 49.2925 31.7988 47.4735 31.4939 45.949C31.3415 45.1868 31.1077 44.5059 30.7927 43.9064C30.6301 43.6116 30.4472 43.3372 30.2541 43.073C30.0509 42.8189 29.8272 42.575 29.5833 42.3616C28.6077 41.4775 27.2968 40.888 25.9857 40.512C24.6646 40.136 23.3536 39.9327 22.1646 39.821C20.9756 39.699 19.9186 39.6583 19.0345 39.6279C18.1503 39.6075 17.4491 39.5974 16.9714 39.6075C16.4938 39.6075 16.2397 39.6177 16.2397 39.6177H16.0568L15.9857 39.3535L16.1483 39.2722C16.1483 39.2722 16.382 39.1502 16.8394 38.9571C17.2967 38.7742 17.9674 38.51 18.8516 38.2457C19.7357 37.9815 20.8231 37.7173 22.1137 37.5445C23.4044 37.3718 24.8983 37.2803 26.5752 37.4835C27.4085 37.5852 28.2926 37.7681 29.1971 38.0831C29.4208 38.1543 29.6544 38.2559 29.8781 38.3474C30.1016 38.449 30.3354 38.5506 30.5589 38.6726C31.0163 38.9063 31.4634 39.201 31.9004 39.5262C32.3374 39.8616 32.7439 40.2478 33.1199 40.6746C33.4858 41.1116 33.8212 41.5893 34.1058 42.0974C34.3801 42.6055 34.6138 43.1442 34.7765 43.6929C34.8679 43.9673 34.9289 44.2417 35 44.5263C35.061 44.8007 35.1016 45.0852 35.1423 45.3596C35.2948 46.4775 35.2642 47.5954 35.1423 48.6727C35.0204 49.7498 34.7968 50.8068 34.5122 51.8332C34.4411 52.0873 34.3597 52.3414 34.2887 52.5954C34.2074 52.8495 34.1261 53.1036 34.0346 53.3475C33.9533 53.6015 33.8517 53.8556 33.75 54.0995L33.5976 54.4755C33.5468 54.5975 33.496 54.7092 33.4451 54.8312L33.1199 55.5528C32.998 55.8068 32.876 56.0609 32.7439 56.3048C32.4797 56.7926 32.1748 57.2702 31.8394 57.7276C31.1687 58.6321 30.3659 59.4248 29.4918 60.0853C28.6179 60.7459 27.6728 61.2642 26.6971 61.6707C26.4532 61.7723 26.2093 61.8638 25.9654 61.9451C25.7215 62.0365 25.4675 62.1179 25.2235 62.1789C24.7256 62.3211 24.2276 62.4431 23.7195 62.5447C22.7134 62.7378 21.7174 62.8699 20.7113 62.941C18.7194 63.0731 16.7173 62.9715 14.8881 62.4939C13.0588 62.0264 11.4023 61.1931 10.071 60.0955C9.39009 59.5569 8.80065 58.9268 8.30268 58.2459C7.81488 57.5548 7.41853 56.7723 7.26609 55.9187C7.22544 55.7052 7.19495 55.4918 7.18479 55.2784C7.17463 55.0345 7.17463 54.8414 7.20511 54.6788C7.22544 54.506 7.24577 54.3434 7.28642 54.1808C7.3169 54.0182 7.34739 53.8556 7.39821 53.7031C7.56081 53.0934 7.79455 52.5548 8.06894 52.1076C8.60756 51.2133 9.21733 50.695 9.64416 50.4003C9.74578 50.319 9.84741 50.258 9.93887 50.2072C10.0202 50.1564 10.0913 50.1157 10.1523 50.0852C10.2742 50.0242 10.3251 49.9938 10.3251 49.9938L10.4877 49.9125L10.6503 50.0649L10.5893 50.2377Z" fill="#3C4A41"/>
<path d="M22.4815 43.7265C21.7193 47.5984 20.9673 51.4704 20.2051 55.3424C19.9612 56.6127 22.6035 55.1493 22.766 54.2753C23.5283 50.4034 24.2803 46.5314 25.0425 42.6594C25.2864 41.3992 22.6441 42.8626 22.4815 43.7265Z" fill="#3C4A41"/>
</g>
<defs>
<clipPath id="clip0_2_27597">
<rect width="86.2534" height="26.9542" fill="white" transform="translate(7.17847 37.4265)"/>
</clipPath>
</defs>
</svg>
