<svg width="102" height="102" viewBox="0 0 102 102" fill="none" xmlns="http://www.w3.org/2000/svg">
<g clip-path="url(#clip0_2_27640)">
<path d="M15.5093 40.5918L5.57983 43.8458V49.51L10.2499 47.9782V53.1307L15.5093 51.4062V40.5918Z" fill="#3C4A41"/>
<path d="M5.57866 49.5022L0.318237 51.2277V61.8262L10.2487 58.5708V53.1229L5.57866 54.6529V49.5022Z" fill="#3C4A41"/>
<path d="M5.57983 49.5059V54.6566L10.2499 53.1267V47.9741L5.57983 49.5059Z" fill="#3C4A41"/>
<path d="M100.763 56.0655C100.763 57.731 99.8676 58.5745 98.0111 58.5745H91.3694C89.4722 58.5745 88.6326 57.708 88.6326 55.9854V55.3892H89.4455C89.8118 55.3892 89.9659 55.5118 90.0028 55.9326C90.0831 56.8655 90.3987 57.326 91.5466 57.326H98.0536C99.0972 57.326 99.3953 56.9616 99.3953 56.0259V55.1852C99.3953 54.2504 99.0972 53.8841 98.0536 53.8841H91.4514C89.6236 53.8841 88.6998 53.0012 88.6998 51.3235V50.5374C88.6998 48.8599 89.6217 47.9741 91.4514 47.9741H98.0111C99.8463 47.9741 100.615 48.8009 100.615 50.4286V51.0246H99.8011C99.409 51.0246 99.2429 50.8917 99.2199 50.4968C99.1644 49.6146 98.7972 49.2215 97.7693 49.2215H91.3969C90.394 49.2215 90.0691 49.6146 90.0691 50.5632V51.1741C90.0691 52.1235 90.394 52.5166 91.3969 52.5166H98.0111C99.8676 52.5166 100.763 53.3608 100.763 55.0218V56.0655Z" fill="#3C4A41"/>
<path d="M85.3553 58.5745H84.3791C84.0542 58.5745 83.9315 58.3854 83.9315 58.1131V47.9741H84.9216C85.1791 47.9741 85.3553 48.1513 85.3553 48.4226V58.5745Z" fill="#3C4A41"/>
<path d="M81.9234 58.5191L81.9076 58.5745H80.4313C80.0798 58.5745 79.8362 58.4619 79.6322 58.2635L75.0647 53.8169C74.943 53.6997 74.7916 53.7117 74.6717 53.8317L70.226 58.2072C69.9659 58.4628 69.7656 58.5745 69.3845 58.5745H67.8261L67.8103 58.5191L73.6539 52.9643L68.4487 48.0166L68.4626 47.9741H69.9934C70.3478 47.9741 70.5747 48.0719 70.7805 48.273L74.6587 52.069C74.7962 52.2056 74.9521 52.201 75.0924 52.069L79.0233 48.2859C79.2429 48.0736 79.4976 47.9741 79.8084 47.9741H81.258L81.2728 48.0166L76.1074 52.9643L81.9234 58.5191Z" fill="#3C4A41"/>
<path d="M65.8054 58.5745H64.8273C64.5024 58.5745 64.3826 58.3854 64.3826 58.1131V47.9741H65.3717C65.6292 47.9741 65.8054 48.1513 65.8054 48.4226V58.5745Z" fill="#3C4A41"/>
<path d="M62.6185 49.2217H57.442C57.3349 49.2217 57.2519 49.29 57.2519 49.4117V58.5745H56.2628C55.9371 58.5745 55.8153 58.3854 55.8153 58.1131V49.2217H50.8953C50.6249 49.2217 50.4478 49.074 50.4478 48.7899V47.9741H62.1709C62.444 47.9741 62.6185 48.1236 62.6185 48.4078V49.2217Z" fill="#3C4A41"/>
<path d="M35.4271 58.5745H33.7894C33.3805 58.5745 33.0577 58.4767 32.7854 58.2072L23.8517 49.4117C23.7206 49.2826 23.5674 49.3582 23.5674 49.5335V58.5743H22.5764C22.2534 58.5743 22.1307 58.3852 22.1307 58.1129V47.9741H23.7843C24.1764 47.9741 24.5142 48.0719 24.7466 48.3007L33.7064 57.1386C33.8438 57.2742 33.9906 57.206 33.9906 57.0298V47.9741H34.9945C35.2511 47.9741 35.4273 48.1513 35.4273 48.4226L35.4271 58.5745Z" fill="#3C4A41"/>
<path d="M45.6496 47.9741H43.8605L37.5574 58.5745H38.6555C39.0079 58.5745 39.2682 58.4454 39.4148 58.1943L40.3772 56.5537C40.451 56.4282 40.5118 56.3914 40.6614 56.3914H48.8349C48.9705 56.3914 49.0489 56.4356 49.1191 56.5537L50.0824 58.1685C50.2448 58.4361 50.4755 58.5745 50.8954 58.5745H51.9519L45.6496 47.9741ZM41.191 55.1455L44.5932 49.3988C44.6771 49.2558 44.8249 49.2623 44.9042 49.3988L48.3064 55.1455H41.191Z" fill="#3C4A41"/>
</g>
<defs>
<clipPath id="clip0_2_27640">
<rect width="100.629" height="21.2596" fill="white" transform="translate(0.218506 40.5833)"/>
</clipPath>
</defs>
</svg>
