<svg width="101" height="102" viewBox="0 0 101 102" fill="none" xmlns="http://www.w3.org/2000/svg">
<mask id="mask0_2_27620" style="mask-type:luminance" maskUnits="userSpaceOnUse" x="6" y="38" width="88" height="27">
<path d="M93.2504 38.0325H6.99707V64.296H93.2504V38.0325Z" fill="white"/>
</mask>
<g mask="url(#mask0_2_27620)">
<path d="M70.7474 47.8051H69.5275C69.3983 47.8051 69.2835 47.8913 69.2405 48.0061C69.183 48.1783 69.14 48.2931 69.1256 48.3649L66.9298 54.9523C66.9155 55.0097 66.8438 55.1676 66.7289 55.4259C66.6715 55.5407 66.4993 55.5407 66.4419 55.4259C66.3701 55.268 66.3127 55.1102 66.2553 54.9523L64.0308 48.164L63.9878 48.0061C63.9447 47.8769 63.8298 47.7908 63.7007 47.7908H62.4952C62.2799 47.7908 62.1364 47.9917 62.2081 48.1927L62.2512 48.3075L65.6382 57.7652L65.6526 57.7939C65.6812 57.8657 65.6812 57.9375 65.6526 58.0092L65.5951 58.2101C65.3799 58.7985 64.8201 59.186 64.1887 59.186H62.9257C62.7535 59.186 62.6243 59.3296 62.6243 59.4874V60.4633C62.6243 60.6356 62.7535 60.7647 62.9257 60.7647H64.1887C65.4229 60.7647 66.5424 60.0471 67.0303 58.9421L67.0877 58.7985C67.102 58.7555 68.0062 56.2726 70.9627 48.0779C70.9913 47.9487 70.8909 47.8051 70.7474 47.8051ZM54.6448 56.244C54.9032 56.3301 55.2045 56.3874 55.549 56.3874C56.568 56.3874 57.3573 55.9426 57.9457 55.4116C58.4193 54.938 58.649 54.3639 58.649 53.6606V52.9C58.649 52.8139 58.5772 52.7422 58.4911 52.7422L58.2615 52.7708L57.3142 52.8856L55.4341 53.1727C54.4152 53.3306 53.8124 53.7468 53.6115 54.3639C53.5541 54.5074 53.5254 54.6653 53.5254 54.8375C53.511 55.4976 53.9847 56.0574 54.6448 56.244ZM60.328 56.9041V57.4925C60.328 57.6647 60.1846 57.7939 60.0267 57.7939H59.0508C58.8786 57.7939 58.7494 57.6647 58.7494 57.4925L58.735 56.5167C58.735 56.4449 58.649 56.4162 58.6059 56.4592L58.4336 56.6315C57.6443 57.4064 56.568 57.7939 55.1902 57.7939C54.1999 57.7939 53.3819 57.5356 52.7504 57.0046C52.1189 56.4879 51.8032 55.7703 51.8032 54.8232C51.8032 54.3352 51.8893 53.9046 52.0759 53.5459C52.2625 53.187 52.4921 52.9144 52.7935 52.7134C53.0949 52.5125 53.3962 52.3547 53.6546 52.2542C53.9272 52.1537 54.2143 52.0819 54.5157 52.0389C55.9796 51.838 56.7689 51.7232 56.9124 51.6944C57.0415 51.6801 57.5151 51.6228 58.3476 51.5079L58.5197 51.4792C58.5915 51.4648 58.649 51.4074 58.649 51.3357V50.9195C58.649 50.3023 58.4911 49.8144 58.1466 49.47C57.8022 49.1256 57.1994 48.9533 56.3096 48.9533C55.836 48.9533 55.4341 49.0107 55.1041 49.1112C54.7597 49.226 54.5156 49.3838 54.3434 49.5991C54.1999 49.7713 54.0851 49.9579 54.0133 50.1589C53.9847 50.2306 53.9703 50.288 53.956 50.3598C53.9272 50.5033 53.7981 50.6037 53.6546 50.6037H52.5351C52.363 50.6037 52.2194 50.4603 52.2337 50.2737V50.2163C52.2481 50.1014 52.2625 50.0153 52.2768 49.9293C52.3342 49.6709 52.449 49.3982 52.6212 49.1112C52.7935 48.8242 53.0231 48.5802 53.3101 48.3649C53.5972 48.1496 53.9847 47.9774 54.487 47.8339C55.0036 47.6904 55.592 47.6186 56.2666 47.6186C58.9934 47.6186 60.328 48.6806 60.328 50.8478V56.9041ZM82.7166 48.0205V57.4495C82.7166 57.6217 82.8602 57.7509 83.0181 57.7509H84.2379C84.3961 57.7509 84.5393 57.6074 84.5393 57.4495V48.0205C84.5393 47.8483 84.3961 47.7191 84.2379 47.7191H83.0181C82.8602 47.7191 82.7166 47.8483 82.7166 48.0205ZM82.7166 45.021V46.2121C82.7166 46.3844 82.8602 46.5135 83.0181 46.5135H84.2379C84.4099 46.5135 84.5393 46.3844 84.5393 46.2121V45.021C84.5393 44.8488 84.4099 44.7196 84.2379 44.7196H83.0181C82.8602 44.7196 82.7166 44.8488 82.7166 45.021ZM90.2515 49.2977H92.8342C93.0068 49.2977 93.1361 49.1543 93.1361 48.9964V48.0205C93.1361 47.8483 92.9921 47.7191 92.8342 47.7191H90.2515C90.1653 47.7191 90.0937 47.6474 90.0937 47.5612V45.021C90.0937 44.8488 89.9496 44.7196 89.7918 44.7196H88.572C88.3995 44.7196 88.271 44.8488 88.271 45.021V47.5612C88.271 47.6474 88.1993 47.7191 88.1131 47.7191H86.9934C86.8209 47.7191 86.6924 47.8483 86.6924 48.0205V48.9964C86.6924 49.1686 86.8356 49.2977 86.9934 49.2977H88.1131C88.1993 49.2977 88.271 49.3695 88.271 49.4556V54.8232C88.3279 56.4592 89.6917 57.7652 91.3566 57.7652H92.7195C92.892 57.7652 93.0214 57.6217 93.0214 57.4638V56.4879C93.0214 56.3157 92.8774 56.1865 92.7195 56.1865H91.3566C90.6527 56.1865 90.0937 55.6269 90.0937 54.938V49.4556C90.1075 49.3695 90.1653 49.2977 90.2515 49.2977ZM50.4398 48.7811C50.4398 46.571 48.6458 44.777 46.407 44.7196H40.5803C40.408 44.7196 40.2789 44.8488 40.2789 45.021V57.4495C40.2789 57.6217 40.4224 57.7509 40.5803 57.7509H41.8001C41.9724 57.7509 42.1015 57.6074 42.1015 57.4495V52.9861C42.1015 52.9 42.1589 52.8283 42.245 52.8283H46.3783C48.6315 52.7852 50.4254 50.9912 50.4398 48.7811ZM48.8181 48.7811C48.8181 50.1445 47.6986 51.2496 46.3065 51.2496H42.2593C42.1733 51.2496 42.1158 51.1778 42.1158 51.0917V46.4561C42.1158 46.37 42.1733 46.2982 42.2593 46.2982H46.3065C47.6986 46.2982 48.8181 47.4177 48.8181 48.7811ZM74.7372 52.7995H79.3297C79.5018 52.7995 79.6311 52.656 79.6311 52.4981V51.5223C79.6311 51.35 79.4875 51.2209 79.3297 51.2209H74.7372C74.651 51.2209 74.5793 51.1491 74.5793 51.0774V46.4705C74.5793 46.3844 74.651 46.3126 74.7372 46.3126H80.3773C80.5496 46.3126 80.6787 46.1691 80.6787 46.0112V45.0354C80.6787 44.8631 80.5352 44.734 80.3773 44.734H73.058C72.8858 44.734 72.7566 44.8631 72.7566 45.0354V57.4638C72.7566 57.6361 72.8858 57.7652 73.058 57.7652H74.2779C74.4501 57.7652 74.5793 57.6217 74.5793 57.4638V52.9574C74.5936 52.8713 74.651 52.7995 74.7372 52.7995ZM20.3158 38.1035C27.6494 38.1035 33.591 43.959 33.591 51.1778C33.591 58.3967 27.6494 64.2522 20.3158 64.2522C12.982 64.2522 7.02612 58.3967 7.02612 51.1778C7.02612 43.959 12.9677 38.1035 20.3158 38.1035ZM17.8329 45.0927H15.8667C15.7232 45.0927 15.594 45.1932 15.5653 45.3367V45.3941V55.8708C15.5653 57.1338 16.6131 58.1671 17.8903 58.1671C19.1819 58.1671 20.2153 57.1338 20.2153 55.8708C20.2153 55.8421 20.2153 55.8421 20.2153 55.8278V53.2301C20.2153 53.1583 20.2583 53.1009 20.3301 53.0866L20.3731 53.0722H23.473C25.6402 52.9861 27.3623 51.2209 27.3623 49.0825C27.3623 46.9298 25.6402 45.1788 23.4444 45.0927H23.4157C23.1717 45.0927 21.306 45.0927 17.8329 45.0927ZM20.5023 46.2696H23.3009C24.8795 46.2696 26.1711 47.5325 26.1711 49.0825C26.1711 50.6037 24.9513 51.838 23.4157 51.8954H20.3731C20.287 51.8954 20.2153 51.8237 20.2296 51.7376V49.8288C20.2296 49.7427 20.287 49.6709 20.3731 49.6709H23.3009C23.6309 49.6709 23.8893 49.4125 23.9037 49.0825C23.9037 48.7524 23.6309 48.4941 23.3009 48.4941H19.3255C19.1533 48.4941 19.0241 48.6376 19.0241 48.7954V55.799C19.0528 56.4449 18.5361 56.9902 17.8903 56.9902C17.2732 56.9902 16.7565 56.5022 16.7565 55.8708C16.7565 55.8421 16.7565 55.8278 16.7565 55.8134V46.4131C16.7565 46.327 16.8283 46.2696 16.9 46.2696H20.5023Z" fill="#3C4A41"/>
</g>
</svg>
