<svg width="101" height="102" viewBox="0 0 101 102" fill="none" xmlns="http://www.w3.org/2000/svg">
<g clip-path="url(#clip0_2_27619)">
<path d="M35.6898 56.8611L36.6723 54.5648C37.748 55.3614 39.1511 55.7831 40.5545 55.7831C41.5836 55.7831 42.2384 55.3849 42.2384 54.7758C42.2149 53.0886 36.0406 54.4008 35.9937 50.1589C35.9702 48.0031 37.8882 46.3394 40.6015 46.3394C42.2149 46.3394 43.829 46.7379 44.9748 47.6519L44.0567 49.9972C43.0025 49.3193 41.7004 48.8467 40.4609 48.8467C39.619 48.8467 39.0575 49.2449 39.0575 49.7608C39.081 51.4245 45.3025 50.5104 45.3726 54.5648C45.3726 56.7676 43.5013 58.3142 40.8349 58.3142C38.8707 58.3142 37.0701 57.8456 35.6898 56.8611ZM74.8103 53.7333C74.5623 54.1739 74.2016 54.5406 73.7651 54.7959C73.3286 55.0511 72.8321 55.1856 72.3264 55.1857C70.7506 55.1857 69.4733 53.9057 69.4733 52.3268C69.4733 50.7479 70.7506 49.4679 72.3264 49.4679C72.8321 49.468 73.3286 49.6025 73.7651 49.8577C74.2016 50.113 74.5623 50.4797 74.8103 50.9203L77.5417 49.4042C76.5186 47.5758 74.5671 46.3394 72.3264 46.3394C69.0261 46.3394 66.3508 49.0198 66.3508 52.3268C66.3508 55.6335 69.0261 58.3142 72.3264 58.3142C74.5671 58.3142 76.5186 57.0778 77.5417 55.2494L74.8103 53.7333ZM47.1451 58.0798H50.5597V41.3552H47.1454L47.1451 58.0798ZM79.2661 41.3552V58.0798H82.6808V53.0691L86.7271 58.0798H91.0917L85.9462 52.1272L90.7174 46.5728H86.5399L82.6808 51.1907V41.3552H79.2661ZM61.0798 46.5735V47.933C60.5186 46.9955 59.1387 46.3394 57.6886 46.3394C54.6949 46.3394 52.3328 48.9876 52.3328 52.3151C52.3328 55.6425 54.6949 58.3142 57.6886 58.3142C59.1387 58.3142 60.5186 57.6581 61.0798 56.7206V58.0798H64.4945V46.5735H61.0798ZM61.0798 53.7564C60.5887 54.5765 59.5596 55.1853 58.4138 55.1853C56.8376 55.1853 55.5603 53.9057 55.5603 52.3268C55.5603 50.7479 56.8376 49.4679 58.4138 49.4679C59.5596 49.4679 60.5887 50.1006 61.0798 50.9438V53.7564Z" fill="#3C4A41"/>
<path d="M17.6569 40.9875C16.5503 40.9875 15.6534 41.8865 15.6534 42.9951C15.6531 43.2585 15.7047 43.5193 15.8053 43.7627C15.9058 44.0062 16.0533 44.2274 16.2393 44.4138C16.4254 44.6002 16.6463 44.7482 16.8896 44.8492C17.1328 44.9502 17.3935 45.0024 17.6569 45.0026H19.6607V42.9951C19.6612 42.4632 19.4503 41.9528 19.0745 41.5764C18.6988 41.1999 18.1888 40.9881 17.6569 40.9875ZM17.6569 46.341H12.3138C11.2072 46.341 10.3103 47.24 10.3103 48.3489C10.3103 49.4575 11.2072 50.3564 12.3138 50.3564H17.6572C18.7635 50.3564 19.6607 49.4575 19.6607 48.3489C19.6607 47.24 18.7635 46.341 17.6569 46.341Z" fill="#3C4A41"/>
<path d="M30.3468 48.3489C30.3468 47.24 29.4495 46.341 28.3429 46.341C27.2363 46.341 26.3394 47.24 26.3394 48.3489V50.3564H28.3429C28.8749 50.3559 29.3848 50.1441 29.7606 49.7676C30.1364 49.3911 30.3472 48.8808 30.3468 48.3489ZM25.0037 48.3489V42.9951C25.0042 42.4632 24.7933 41.9528 24.4175 41.5764C24.0417 41.1999 23.5318 40.9881 22.9999 40.9875C21.8933 40.9875 20.9963 41.8865 20.9963 42.9951V48.3486C20.9963 49.4578 21.8933 50.3568 22.9999 50.3568C23.5318 50.3562 24.0417 50.1444 24.4175 49.768C24.7933 49.3915 25.0042 48.8808 25.0037 48.3489Z" fill="#3C4A41"/>
<path d="M22.9999 61.064C23.5318 61.0634 24.0417 60.8516 24.4175 60.4751C24.7933 60.0987 25.0042 59.5883 25.0037 59.0564C25.0042 58.5245 24.7933 58.0142 24.4175 57.6377C24.0417 57.2612 23.5318 57.0494 22.9999 57.0489H20.9963V59.0564C20.9963 60.165 21.8933 61.064 22.9999 61.064ZM22.9999 55.7105H28.3433C29.4495 55.7105 30.3468 54.8115 30.3468 53.7026C30.3472 53.1707 30.1364 52.6604 29.7606 52.2839C29.3848 51.9074 28.8749 51.6956 28.3429 51.6951H22.9999C21.8933 51.6951 20.9963 52.594 20.9963 53.7026C20.9961 53.966 21.0477 54.2268 21.1482 54.4703C21.2488 54.7137 21.3963 54.9349 21.5823 55.1213C21.7684 55.3078 21.9893 55.4557 22.2325 55.5567C22.4758 55.6578 22.7365 55.7102 22.9999 55.7105Z" fill="#3C4A41"/>
<path d="M10.3103 53.6994C10.31 53.9628 10.3617 54.2237 10.4622 54.4671C10.5627 54.7105 10.7102 54.9317 10.8963 55.1182C11.0823 55.3046 11.3033 55.4525 11.5465 55.5536C11.7897 55.6546 12.0505 55.7067 12.3138 55.707C12.8458 55.7065 13.3557 55.4947 13.7315 55.1182C14.1073 54.7417 14.3181 54.2314 14.3177 53.6994V51.6919H12.3138C11.2072 51.6919 10.3103 52.5908 10.3103 53.6994ZM15.6534 53.6994V59.0529C15.6534 60.1618 16.5503 61.0608 17.6569 61.0608C18.1888 61.0602 18.6988 60.8485 19.0745 60.472C19.4503 60.0955 19.6612 59.5852 19.6607 59.0532V53.6994C19.661 53.436 19.6094 53.1752 19.5088 52.9317C19.4083 52.6883 19.2607 52.467 19.0746 52.2806C18.8886 52.0942 18.6676 51.9462 18.4243 51.8452C18.1811 51.7442 17.9203 51.6921 17.6569 51.6919C16.5503 51.6919 15.6534 52.5908 15.6534 53.6994Z" fill="#3C4A41"/>
</g>
<defs>
<clipPath id="clip0_2_27619">
<rect width="80.5032" height="20.1258" fill="white" transform="translate(10.3103 40.937)"/>
</clipPath>
</defs>
</svg>
