<svg width="101" height="102" viewBox="0 0 101 102" fill="none" xmlns="http://www.w3.org/2000/svg">
<g clip-path="url(#clip0_2_27580)">
<path fill-rule="evenodd" clip-rule="evenodd" d="M8.04867 52.6152C8.18432 52.4794 8.18432 52.251 8.04867 52.1153C8.04867 52.1153 5.45651 49.516 5.44222 49.516C5.37082 49.4446 5.33511 49.3589 5.33511 49.2661C5.34225 49.1732 5.37796 49.0875 5.44222 49.0161L10.7693 43.6891C10.8407 43.6177 10.8836 43.532 10.8836 43.4249C10.8836 43.2321 10.7264 43.075 10.5337 43.075H5.34939C5.25656 43.075 5.16373 43.1178 5.09947 43.1821L-0.270457 48.552C-0.448979 48.7376 -0.563232 48.9876 -0.563232 49.2661C-0.563232 49.5446 -0.456119 49.7873 -0.277599 49.973L4.95665 55.2072C5.09233 55.3429 5.32083 55.3429 5.45651 55.2072L8.04867 52.6152ZM11.6191 49.0162C11.4834 49.1518 11.4834 49.3804 11.6191 49.516L14.2255 52.1153C14.2897 52.1867 14.3255 52.2724 14.3255 52.3653C14.3255 52.4581 14.2969 52.5509 14.2255 52.6152L8.8984 57.9422C8.82699 58.0065 8.78416 58.0994 8.78416 58.2064C8.78416 58.3992 8.94123 58.5563 9.13404 58.5563H14.3183C14.4111 58.5563 14.5039 58.5135 14.5683 58.4492L19.9382 53.0793C20.1167 52.8936 20.231 52.6437 20.231 52.3653C20.231 52.0867 20.1167 51.8439 19.9453 51.6583L14.7111 46.424C14.5754 46.2884 14.3469 46.2884 14.2112 46.424L11.6191 49.0162ZM32.5846 47.0167C31.7063 46.7096 30.3424 46.4454 29.1784 46.4454C27.0719 46.4454 25.7437 47.4452 25.7437 49.109C25.7437 50.58 26.622 51.1941 28.5072 51.5869C28.6156 51.6094 28.7229 51.6309 28.8282 51.6519C29.7563 51.8373 30.5281 51.9916 30.5281 52.6008C30.5281 53.0864 30.0567 53.3292 29.1642 53.3221C28.4215 53.3078 27.3147 53.1078 25.9651 52.6008L25.4937 54.4503C26.8076 54.943 28.1716 55.1787 29.2498 55.1787C31.3706 55.1787 32.7703 54.2647 32.7703 52.4652C32.7703 50.8442 31.6206 50.2944 29.8854 49.923C29.8059 49.9064 29.7287 49.8904 29.6538 49.8749L29.6527 49.8746C28.6052 49.6576 28.0145 49.5353 28.0145 49.009C28.0145 48.4877 28.4572 48.2664 29.1927 48.2664C29.9139 48.2664 30.9636 48.4663 32.1419 48.8233L32.5846 47.0167ZM35.2053 46.6811C36.1979 46.6311 37.3047 46.5811 38.4543 46.5811C40.6823 46.5811 42.1176 47.6094 42.1176 49.5803C42.1176 51.5011 40.6751 52.7151 38.4472 52.7151H37.2832V54.9644H35.2053V46.6811ZM37.2904 48.3163V50.8942H38.5757C39.4326 50.8942 40.0396 50.4158 40.0396 49.5945C40.0396 48.7519 39.4326 48.2949 38.5757 48.2949C38.1473 48.2949 37.7117 48.3021 37.2904 48.3163ZM58.8415 46.6811V51.4726L54.9355 46.6811H53.0146V54.9645H55.0926V50.2159L59.0057 54.9645H60.9124V46.6811H58.8415ZM63.6759 46.6739C64.5901 46.6239 65.6467 46.5739 66.8104 46.5739C69.5526 46.5739 71.3955 48.1307 71.3877 50.7727C71.3877 53.4363 69.5455 55.0715 67.0181 55.0715C65.768 55.0715 64.5901 55.0216 63.6759 54.9716V46.6739ZM65.7609 53.1649C66.1963 53.1863 66.6537 53.1863 67.0749 53.1863C68.2747 53.1863 69.2384 52.258 69.2455 50.7513C69.2455 49.2803 68.2818 48.4377 66.9033 48.4377C66.5395 48.4377 66.1466 48.4377 65.7609 48.4591V53.1649ZM89.3687 47.0167C88.4901 46.7096 87.1265 46.4454 85.9622 46.4454C83.856 46.4454 82.5279 47.4452 82.5279 49.109C82.5279 50.58 83.4058 51.1941 85.2913 51.5869C85.3997 51.6094 85.5067 51.6309 85.6125 51.6519C86.5401 51.8373 87.3123 51.9916 87.3123 52.6008C87.3123 53.0864 86.8407 53.3292 85.948 53.3221C85.2055 53.3078 84.0986 53.1078 82.7491 52.6008L82.2776 54.4503C83.5916 54.943 84.9559 55.1787 86.0338 55.1787C88.1547 55.1787 89.5545 54.2647 89.5545 52.4652C89.5545 50.8442 88.4043 50.2944 86.6691 49.923C86.5898 49.9063 86.5117 49.8902 86.4369 49.8746C85.3893 49.6576 84.7985 49.5353 84.7985 49.009C84.7985 48.4877 85.241 48.2664 85.977 48.2664C86.6982 48.2664 87.7477 48.4663 88.9262 48.8233L89.3687 47.0167ZM95.3742 52.1581H94.0744V54.9645H91.9967V46.6811H94.0815V50.123H94.4885L97.2378 46.6811H99.7657L96.7024 50.4943L99.9586 54.9645H97.4093L95.3742 52.1581ZM46.2451 49.9373V48.4377H50.5296V46.6739H44.1599V54.9574H50.5296V53.1936H46.2451V51.6939H49.8226V49.9373H46.2451ZM75.8509 48.4377V49.9373H79.4284V51.6939H75.8509V53.1936H80.1354V54.9574H73.7661V46.6739H80.1354V48.4377H75.8509Z" fill="#3C4A41"/>
</g>
<defs>
<clipPath id="clip0_2_27580">
<rect width="100.629" height="15.4814" fill="white" transform="translate(-0.563232 43.0867)"/>
</clipPath>
</defs>
</svg>
