<svg width="20" height="20" viewBox="0 0 20 20" fill="none" xmlns="http://www.w3.org/2000/svg">
<path d="M17.4987 16.6418H14.5655V12.0484C14.5655 10.953 14.5459 9.54292 13.04 9.54292C11.5123 9.54292 11.2785 10.7363 11.2785 11.9686V16.6415H8.34534V7.19548H11.1612V8.48633H11.2007C11.774 7.50609 12.8439 6.91842 13.9789 6.96057C16.9518 6.96057 17.4999 8.916 17.4999 11.4599L17.4987 16.6418ZM5.03578 5.90424C4.10199 5.90424 3.33325 5.13595 3.33325 4.20217C3.33325 3.26838 4.10164 2.5 5.03542 2.5C5.96912 2.5 6.73741 3.26821 6.73759 4.20182C6.73759 5.13542 5.96938 5.90416 5.03578 5.90424ZM6.50233 16.6418H3.56613V7.19548H6.50233V16.6418Z" fill="#3C4A41"/>
</svg>
