<svg width="20" height="20" viewBox="0 0 20 20" fill="none" xmlns="http://www.w3.org/2000/svg">
<path d="M17.9998 6.00033C17.8332 5.25033 17.2498 4.75033 16.4998 4.50033C15.2498 4.16699 9.99984 4.16699 9.99984 4.16699C9.99984 4.16699 4.74984 4.16699 3.49984 4.50033C2.74984 4.66699 2.1665 5.25033 1.99984 6.00033C1.6665 7.25033 1.6665 10.0003 1.6665 10.0003C1.6665 10.0003 1.6665 12.7503 1.99984 14.0003C2.1665 14.7503 2.74984 15.2503 3.49984 15.5003C4.74984 15.8337 9.99984 15.8337 9.99984 15.8337C9.99984 15.8337 15.2498 15.8337 16.4998 15.5003C17.2498 15.3337 17.7498 14.7503 17.9998 14.0003C18.3332 12.7503 18.3332 10.0003 18.3332 10.0003C18.3332 10.0003 18.3332 7.25033 17.9998 6.00033ZM8.33317 12.5003V7.50033L12.6665 10.0003L8.33317 12.5003Z" fill="#3C4A41"/>
</svg>
