<svg width="130" height="98" viewBox="0 0 130 98" fill="none" xmlns="http://www.w3.org/2000/svg">
<g clip-path="url(#clip0_1106_411)">
<path d="M100.278 70.9941C101.878 69.92 103.645 68.59 105.069 67.1065C107.597 64.4743 110.103 61.5069 112.257 58.5378C113.712 56.5321 115.601 53.4886 116.632 51.2498C118.005 48.2703 118.818 46.1829 119.571 42.9094C120.633 38.2978 120.486 33.5648 119.408 29.103C117.822 22.5388 112.746 17.0465 107.674 12.5881C103.706 9.10053 98.3704 6.81904 93.6828 5.14312L93.1984 6.423C97.8432 8.08267 102.766 10.2996 106.569 13.646C111.461 17.9512 115.98 23.2014 117.929 29.4576C119.117 33.2658 119.392 37.4442 118.769 41.4905C118.224 45.0352 116.852 48.5876 115.515 51.8176C114.417 54.4727 113.136 56.5411 111.573 58.7195C109.592 61.4819 107.415 64.1757 105.101 66.6354C103.603 68.2276 101.599 69.665 99.9902 70.7458L100.278 70.9941Z" fill="#3C4A41"/>
<path d="M102.311 9.05496C102.311 9.05496 105.603 10.0959 108.216 9.78915C112.364 9.30242 112.747 6.72718 112.747 6.72718C112.747 6.72718 111.082 5.69399 107.513 6.08662C103.331 6.54658 102.311 9.05496 102.311 9.05496Z" fill="#3C4A41"/>
<path d="M107.917 12.9005C107.917 12.9005 110.692 14.2166 113.323 14.1971C117.877 14.1633 118.15 11.7442 118.15 11.7442C118.15 11.7442 116.501 10.5549 112.854 10.6038C108.647 10.6603 107.917 12.9005 107.917 12.9005Z" fill="#3C4A41"/>
<path d="M112.065 16.9452C112.065 16.9452 114.703 19.2575 117.255 19.897C121.673 21.004 123.136 18.4334 123.136 18.4334C123.136 18.4334 121.494 16.4631 117.95 15.5979C113.864 14.6 112.065 16.9452 112.065 16.9452Z" fill="#3C4A41"/>
<path d="M116.749 23.1741C116.749 23.1741 119.005 25.5525 122.094 26.5015C126.125 27.7399 128.019 25.3085 128.075 25.2476C128.075 25.2476 126.423 23.1689 122.977 22.2575C118.355 21.035 116.749 23.1741 116.749 23.1741Z" fill="#3C4A41"/>
<path d="M118.98 28.1326C118.98 28.1326 121.081 31.3326 124.215 32.843C127.26 34.311 129.484 33.0609 129.54 33.0118C129.54 33.0118 127.976 30.1537 125.098 28.784C121.189 26.923 118.98 28.1326 118.98 28.1326Z" fill="#3C4A41"/>
<path d="M119.657 32.4834C120.779 33.5385 120.862 36.4063 122.466 38.7334C124.702 41.9802 128.391 41.7448 128.446 41.7142C128.446 41.7142 128.051 37.6693 125.255 35.2245C122.282 32.6264 119.657 32.4834 119.657 32.4834Z" fill="#3C4A41"/>
<path d="M119.967 39.3024C119.967 39.3024 119.858 42.818 120.785 45.4878C122.079 49.2119 125.609 49.9432 125.67 49.9285C125.67 49.9285 126.243 45.9462 124.196 42.8463C122.021 39.5517 119.967 39.3024 119.967 39.3024Z" fill="#3C4A41"/>
<path d="M118.472 45.8911C118.472 45.8911 117.768 48.8424 118.124 51.6461C118.662 55.8714 121.95 56.7659 122.013 56.7597C122.013 56.7597 123.14 52.8461 121.537 49.4955C119.833 45.9346 118.472 45.8911 118.472 45.8911Z" fill="#3C4A41"/>
<path d="M115.575 52.9644C115.575 52.9644 114.43 55.6342 114.577 58.4564C114.78 62.3733 117.434 64.028 117.497 64.0303C117.497 64.0303 120.056 61.7229 118.587 56.7562C117.695 53.7433 115.575 52.9644 115.575 52.9644Z" fill="#3C4A41"/>
<path d="M111.89 58.7808C111.89 58.7808 110.189 61.4021 109.718 64.1888C109.276 66.8049 110.337 69.6551 110.574 69.917C110.574 69.917 113.343 68.7001 113.239 64.0296C113.17 60.8884 111.89 58.7808 111.89 58.7808Z" fill="#3C4A41"/>
<path d="M107.363 64.3935C107.363 64.3935 105.334 66.5541 104.805 69.5085C104.368 71.9567 104.808 74.6172 105.27 75.2812C105.27 75.2812 107.916 73.6369 108.108 69.4785C108.253 66.3399 107.572 64.8464 107.363 64.3935Z" fill="#3C4A41"/>
<path d="M104.078 67.8347C104.078 67.8347 100.211 67.6949 98.2894 68.8107C96.1382 70.0597 94.0271 72.7707 93.8606 73.5621C93.8606 73.5621 97.2474 75.0472 100.405 72.3345C102.788 70.2871 103.893 68.2981 104.078 67.8347Z" fill="#3C4A41"/>
<path d="M108.338 63.1706C108.338 63.1706 106.489 65.336 103.31 65.8955C100.861 66.3267 98.9773 65.9286 97.7681 65.224C97.7681 65.224 99.6335 62.8341 103.209 62.5046C106.338 62.2163 107.879 62.9757 108.338 63.1706Z" fill="#3C4A41"/>
<path d="M112.161 58.1776C112.161 58.1776 110.4 60.2546 107.222 60.8141C104.772 61.2453 103.596 60.803 102.387 60.0983C102.387 60.0983 103.877 57.8189 107.452 57.4895C110.581 57.2012 111.702 57.9827 112.161 58.1776Z" fill="#3C4A41"/>
<path d="M115.872 51.6632C115.872 51.6632 114.227 54.2232 111.252 55.4743C108.204 56.7564 106.638 56.1441 105.327 55.6548C105.745 55.0275 107.456 52.4133 110.23 51.6285C113.254 50.7733 115.386 51.5491 115.872 51.6632Z" fill="#3C4A41"/>
<path d="M118.073 45.8789C118.073 45.8789 116.615 48.5501 113.738 50.0108C110.789 51.5076 109.184 51.009 107.841 50.6146C108.213 49.9591 109.733 47.2292 112.443 46.2479C115.398 45.1786 117.58 45.7999 118.073 45.8789Z" fill="#3C4A41"/>
<path d="M119.23 39.0041C117.968 40.6217 117.282 42.3607 115.341 44.0914C112.95 46.2237 110.898 45.544 109.505 45.4063C110.191 44.1185 111.22 42.0815 113.347 40.5468C115.895 38.7085 118.731 39.018 119.23 39.0041Z" fill="#3C4A41"/>
<path d="M119.074 32.6695C118.001 34.418 117.492 35.781 115.757 37.7181C113.619 40.1046 111.592 39.6808 110.192 39.6999C110.73 38.3435 111.635 36.3146 113.578 34.5514C115.904 32.4395 118.58 32.7393 119.074 32.6695Z" fill="#3C4A41"/>
<path d="M117.694 27.6185C116.08 30.1102 116.284 30.6741 114.704 32.7402C113.007 34.959 110.865 34.8981 109.471 35.0293C109.898 33.6343 110.536 31.7471 112.344 29.8468C114.273 27.8203 116.279 28.0813 117.694 27.6185Z" fill="#3C4A41"/>
<path d="M115.042 22.6703C114.024 24.8749 114.2 26.2515 113.267 27.8142C111.741 30.3699 110.245 30.4802 108.852 30.6113C109.963 27.4271 109.706 27.4124 110.929 25.4731C112.12 23.5859 113.737 23.332 115.042 22.6703Z" fill="#3C4A41"/>
<path d="M111.846 18.5084C111.266 20.8662 111.855 21.5877 111.236 23.2992C110.223 26.0986 108.776 26.4912 107.433 26.8848C107.587 25.0056 107.354 23.8135 108.407 21.7767C109.151 20.3383 110.691 19.4059 111.846 18.5084Z" fill="#3C4A41"/>
<path d="M105.402 23.1367C105.402 23.1367 104.239 20.8914 104.626 18.2891C105.173 14.6021 107.143 14.0497 107.143 14.0497C107.143 14.0497 108.266 15.7255 108.152 19.1259C108.03 22.758 105.402 23.1367 105.402 23.1367Z" fill="#3C4A41"/>
<path d="M101.204 19.3828C101.204 19.3828 100.041 17.1095 100.295 14.4909C100.622 11.1352 102.459 10.2957 102.459 10.2957C102.459 10.2957 103.617 12.1691 103.666 14.9962C103.742 19.3133 101.204 19.3828 101.204 19.3828Z" fill="#3C4A41"/>
<path d="M29.7248 70.9932C28.1258 69.9191 26.3584 68.589 24.934 67.1055C22.4069 64.4733 19.9004 61.5059 17.7462 58.5369C16.291 56.5311 14.4029 53.4876 13.3713 51.2488C11.9985 48.2693 11.1854 46.1819 10.432 42.9084C9.37068 38.2968 9.51693 33.5639 10.595 29.1021C12.181 22.5378 17.2572 17.0455 22.3297 12.5871C26.2979 9.09956 31.633 6.81806 36.3206 5.14214L36.8018 6.42125C32.1564 8.08184 27.2333 10.2985 23.4303 13.6452C18.5383 17.9498 14.0202 23.1996 12.07 29.4568C10.8832 33.2652 10.6075 37.4439 11.2305 41.4897C11.7762 45.0343 13.1479 48.5867 14.4843 51.8168C15.583 54.4719 16.8639 56.5403 18.4266 58.7189C20.4077 61.4811 22.5847 64.1749 24.8989 66.6346C26.397 68.2268 28.4004 69.6642 30.0094 70.745L29.7248 70.9932Z" fill="#3C4A41"/>
<path d="M27.6875 9.05496C27.6875 9.05496 24.3949 10.0959 21.7821 9.78915C17.6339 9.30242 17.2514 6.72718 17.2514 6.72718C17.2514 6.72718 18.9156 5.69399 22.485 6.08662C26.6667 6.54658 27.6875 9.05496 27.6875 9.05496Z" fill="#3C4A41"/>
<path d="M22.0874 12.9005C22.0874 12.9005 19.3127 14.2166 16.682 14.1971C12.1275 14.1633 11.8545 11.7442 11.8545 11.7442C11.8545 11.7442 13.5031 10.5549 17.1506 10.6038C21.3571 10.6603 22.0874 12.9005 22.0874 12.9005Z" fill="#3C4A41"/>
<path d="M17.9321 16.9462C17.9321 16.9462 15.2938 19.2585 12.7417 19.898C8.32389 21.005 6.86062 18.4344 6.86062 18.4344C6.86062 18.4344 8.50279 16.4641 12.0465 15.5988C16.1332 14.6009 17.9321 16.9462 17.9321 16.9462Z" fill="#3C4A41"/>
<path d="M13.2515 23.1751C13.2515 23.1751 10.9952 25.5535 7.90646 26.5025C3.87568 27.7409 1.98108 25.3094 1.92583 25.2486C1.92583 25.2486 3.57745 23.1698 7.02338 22.2585C11.6455 21.036 13.2515 23.1751 13.2515 23.1751Z" fill="#3C4A41"/>
<path d="M11.021 28.1329C11.021 28.1329 8.91963 31.333 5.7854 32.8433C2.7403 34.3107 0.516065 33.061 0.460815 33.0118C0.460815 33.0118 2.02483 30.1535 4.90232 28.7839C8.81176 26.923 11.021 28.1329 11.021 28.1329Z" fill="#3C4A41"/>
<path d="M10.3467 32.4832C9.22543 33.5382 9.14171 36.4059 7.53853 38.7334C5.30206 41.9802 1.61315 41.7446 1.5579 41.7143C1.5579 41.7143 1.95286 37.6693 4.74956 35.2246C7.72176 32.6265 10.3467 32.4832 10.3467 32.4832Z" fill="#3C4A41"/>
<path d="M10.0322 39.3024C10.0322 39.3024 10.141 42.818 9.21397 45.4878C7.92063 49.2119 4.39004 49.9432 4.32876 49.9285C4.32876 49.9285 3.75614 45.9462 5.80271 42.8463C7.97773 39.5517 10.0322 39.3024 10.0322 39.3024Z" fill="#3C4A41"/>
<path d="M11.5286 45.8911C11.5286 45.8911 12.2329 48.8424 11.8762 51.6461C11.3384 55.8714 8.05034 56.7659 7.9875 56.7597C7.9875 56.7597 6.86037 52.8461 8.46386 49.4955C10.1681 45.9346 11.5286 45.8911 11.5286 45.8911Z" fill="#3C4A41"/>
<path d="M14.4242 52.9654C14.4242 52.9654 15.5693 55.6352 15.4226 58.4574C15.2189 62.3742 12.5649 64.029 12.5019 64.0312C12.5019 64.0312 9.94275 61.7239 11.4125 56.7572C12.3041 53.7443 14.4242 52.9654 14.4242 52.9654Z" fill="#3C4A41"/>
<path d="M18.1155 58.7808C18.1155 58.7808 19.8173 61.4021 20.2881 64.1888C20.7299 66.8049 19.6686 69.6551 19.4316 69.917C19.4316 69.917 16.6628 68.7001 16.7663 64.0296C16.8361 60.8884 18.1155 58.7808 18.1155 58.7808Z" fill="#3C4A41"/>
<path d="M22.6382 64.393C22.6382 64.393 24.6672 66.5537 25.1957 69.5081C25.6338 71.9567 25.1927 74.6172 24.7311 75.2812C24.7311 75.2812 22.0847 73.6369 21.8923 69.4785C21.7473 66.3399 22.4282 64.846 22.6382 64.393Z" fill="#3C4A41"/>
<path d="M25.9192 67.8346C25.9192 67.8346 29.7861 67.6949 31.7079 68.8107C33.8591 70.0597 35.9702 72.7707 36.1367 73.5621C36.1367 73.5621 32.7499 75.0472 29.5921 72.3345C27.2088 70.2871 26.1047 68.2981 25.9192 67.8346Z" fill="#3C4A41"/>
<path d="M21.6594 63.1706C21.6594 63.1706 23.509 65.336 26.6872 65.8955C29.1369 66.3267 31.0203 65.9286 32.2295 65.224C32.2295 65.224 30.364 62.8341 26.7887 62.5046C23.6599 62.2163 22.1191 62.9757 21.6594 63.1706Z" fill="#3C4A41"/>
<path d="M17.8444 58.1766C17.8444 58.1766 19.6056 60.2537 22.7838 60.8131C25.2336 61.2443 26.41 60.802 27.6191 60.0974C27.6191 60.0974 26.1294 57.8179 22.5539 57.4885C19.4251 57.2002 18.304 57.9818 17.8444 58.1766Z" fill="#3C4A41"/>
<path d="M14.1264 51.6632C14.1264 51.6632 15.7715 54.2232 18.7463 55.4743C21.7947 56.7564 23.3604 56.1441 24.6714 55.6548C24.2534 55.0275 22.5423 52.4133 19.7681 51.6285C16.7448 50.7733 14.6123 51.5491 14.1264 51.6632Z" fill="#3C4A41"/>
<path d="M11.9305 45.8789C11.9305 45.8789 13.3885 48.5501 16.266 50.0108C19.215 51.5076 20.8204 51.009 22.1631 50.6146C21.7909 49.9591 20.2713 47.2292 17.5605 46.2479C14.6059 45.1786 12.4235 45.7999 11.9305 45.8789Z" fill="#3C4A41"/>
<path d="M10.7754 39.0041C12.037 40.6217 12.7229 42.3607 14.6641 44.0914C17.0557 46.2237 19.1078 45.544 20.5005 45.4063C19.8149 44.1185 18.7854 42.0815 16.6581 40.5468C14.1099 38.7085 11.2745 39.018 10.7754 39.0041Z" fill="#3C4A41"/>
<path d="M10.9243 32.6695C11.9972 34.418 12.5062 35.781 14.2415 37.7181C16.3794 40.1046 18.4063 39.6808 19.8057 39.6999C19.2685 38.3435 18.363 36.3146 16.4207 34.5514C14.0942 32.4395 11.4187 32.7393 10.9243 32.6695Z" fill="#3C4A41"/>
<path d="M12.3066 27.6185C13.9205 30.1102 13.7168 30.6741 15.2965 32.7402C16.9931 34.959 19.136 34.8981 20.5293 35.0293C20.1026 33.6343 19.4648 31.7471 17.6565 29.8468C15.7278 27.8203 13.7216 28.0813 12.3066 27.6185Z" fill="#3C4A41"/>
<path d="M14.9575 22.6703C15.975 24.8749 15.7994 26.2515 16.7323 27.8142C18.2582 30.3699 19.7541 30.4802 21.1475 30.6113C20.0361 27.4271 20.2935 27.4124 19.0699 25.4731C17.8795 23.5859 16.2621 23.332 14.9575 22.6703Z" fill="#3C4A41"/>
<path d="M18.1597 18.5084C18.7395 20.8662 18.1507 21.5877 18.7696 23.2992C19.7821 26.0986 21.2297 26.4912 22.5728 26.8848C22.4183 25.0056 22.6514 23.8135 21.5982 21.7767C20.8544 20.3383 19.3147 19.4059 18.1597 18.5084Z" fill="#3C4A41"/>
<path d="M24.5988 23.1367C24.5988 23.1367 25.7619 20.8914 25.3754 18.2891C24.8282 14.6021 22.8579 14.0497 22.8579 14.0497C22.8579 14.0497 21.7358 15.7255 21.8498 19.1259C21.9716 22.758 24.5988 23.1367 24.5988 23.1367Z" fill="#3C4A41"/>
<path d="M28.7985 19.3818C28.7985 19.3818 29.9623 17.1085 29.7077 14.49C29.3813 11.1343 27.5435 10.2947 27.5435 10.2947C27.5435 10.2947 26.3859 12.1681 26.3365 14.9953C26.2613 19.3123 28.7985 19.3818 28.7985 19.3818Z" fill="#3C4A41"/>
<path d="M46.5939 29.2734H45.0385C45.0101 29.0722 44.9521 28.8935 44.8645 28.7372C44.7769 28.5786 44.6645 28.4437 44.5271 28.3324C44.3898 28.2211 44.2312 28.1359 44.0513 28.0767C43.8737 28.0175 43.6808 27.9879 43.4725 27.9879C43.096 27.9879 42.7681 28.0814 42.4888 28.2685C42.2094 28.4531 41.9928 28.723 41.8389 29.0781C41.6851 29.4309 41.6081 29.8594 41.6081 30.3636C41.6081 30.8821 41.6851 31.3177 41.8389 31.6705C41.9952 32.0232 42.213 32.2895 42.4923 32.4695C42.7717 32.6494 43.0949 32.7393 43.4618 32.7393C43.6678 32.7393 43.8583 32.7121 44.0335 32.6577C44.2111 32.6032 44.3685 32.5239 44.5058 32.4197C44.6431 32.3132 44.7568 32.1842 44.8467 32.0327C44.9391 31.8812 45.003 31.7083 45.0385 31.5142L46.5939 31.5213C46.5537 31.8551 46.453 32.1771 46.2921 32.4872C46.1334 32.795 45.9192 33.0708 45.6493 33.3146C45.3818 33.5561 45.0622 33.7479 44.6905 33.8899C44.3212 34.0296 43.9033 34.0994 43.4369 34.0994C42.7883 34.0994 42.2083 33.9527 41.6969 33.6591C41.1879 33.3655 40.7854 32.9406 40.4895 32.3842C40.1959 31.8279 40.0492 31.1544 40.0492 30.3636C40.0492 29.5705 40.1983 28.8958 40.4966 28.3395C40.7949 27.7831 41.1997 27.3594 41.7111 27.0682C42.2225 26.7746 42.7977 26.6278 43.4369 26.6278C43.8583 26.6278 44.249 26.687 44.6088 26.8054C44.971 26.9238 45.2918 27.0966 45.5712 27.3239C45.8505 27.5488 46.0778 27.8246 46.253 28.1513C46.4306 28.478 46.5442 28.852 46.5939 29.2734ZM47.6965 34V26.7273H52.5971V27.995H49.2342V29.728H52.345V30.9957H49.2342V32.7322H52.6113V34H47.6965ZM53.8196 34V26.7273H56.6889C57.2381 26.7273 57.7069 26.8255 58.0951 27.022C58.4858 27.2161 58.7829 27.492 58.9865 27.8494C59.1924 28.2045 59.2954 28.6224 59.2954 29.103C59.2954 29.5859 59.1913 30.0014 58.9829 30.3494C58.7746 30.6951 58.4728 30.9602 58.0774 31.1449C57.6844 31.3295 57.2085 31.4219 56.6498 31.4219H54.7287V30.1861H56.4013C56.6948 30.1861 56.9387 30.1458 57.1328 30.0653C57.3269 29.9848 57.4713 29.8641 57.566 29.7031C57.6631 29.5421 57.7116 29.3421 57.7116 29.103C57.7116 28.8615 57.6631 28.6579 57.566 28.4922C57.4713 28.3265 57.3257 28.201 57.1292 28.1158C56.9351 28.0282 56.6901 27.9844 56.3942 27.9844H55.3572V34H53.8196ZM57.7471 30.6903L59.5547 34H57.8572L56.0888 30.6903H57.7471ZM60.1051 27.995V26.7273H66.0781V27.995H63.8515V34H62.3317V27.995H60.1051ZM68.5994 26.7273V34H67.0618V26.7273H68.5994ZM69.8645 34V26.7273H74.6798V27.995H71.4021V29.728H74.3602V30.9957H71.4021V34H69.8645ZM77.2518 26.7273V34H75.7141V26.7273H77.2518ZM78.5168 34V26.7273H83.4174V27.995H80.0545V29.728H83.1653V30.9957H80.0545V32.7322H83.4316V34H78.5168ZM87.218 34H84.6399V26.7273H87.2393C87.9709 26.7273 88.6006 26.8729 89.1285 27.1641C89.6565 27.4529 90.0625 27.8684 90.3466 28.4105C90.633 28.9527 90.7763 29.6013 90.7763 30.3565C90.7763 31.1141 90.633 31.7652 90.3466 32.3097C90.0625 32.8542 89.6541 33.272 89.1214 33.5632C88.5911 33.8544 87.9567 34 87.218 34ZM86.1775 32.6825H87.1541C87.6086 32.6825 87.991 32.602 88.3011 32.4411C88.6136 32.2777 88.848 32.0256 89.0042 31.6847C89.1629 31.3414 89.2422 30.8987 89.2422 30.3565C89.2422 29.8191 89.1629 29.38 89.0042 29.0391C88.848 28.6982 88.6148 28.4472 88.3047 28.2862C87.9945 28.1252 87.6122 28.0447 87.1576 28.0447H86.1775V32.6825ZM42.6038 46V38.7273H45.4731C46.0247 38.7273 46.4946 38.8326 46.8829 39.0433C47.2711 39.2517 47.5671 39.5417 47.7707 39.9134C47.9766 40.2827 48.0796 40.7088 48.0796 41.1918C48.0796 41.6747 47.9754 42.1009 47.7671 42.4702C47.5588 42.8395 47.2569 43.1271 46.8616 43.3331C46.4686 43.5391 45.9927 43.642 45.434 43.642H43.6052V42.4098H45.1854C45.4814 42.4098 45.7252 42.3589 45.917 42.2571C46.1111 42.1529 46.2555 42.0097 46.3502 41.8274C46.4473 41.6428 46.4958 41.4309 46.4958 41.1918C46.4958 40.9503 46.4473 40.7396 46.3502 40.5597C46.2555 40.3774 46.1111 40.2365 45.917 40.1371C45.7228 40.0353 45.4766 39.9844 45.1783 39.9844H44.1414V46H42.6038ZM49.0784 46V38.7273H51.9477C52.4969 38.7273 52.9657 38.8255 53.3539 39.022C53.7446 39.2161 54.0417 39.492 54.2453 39.8494C54.4512 40.2045 54.5542 40.6224 54.5542 41.103C54.5542 41.5859 54.4501 42.0014 54.2417 42.3494C54.0334 42.6951 53.7315 42.9602 53.3362 43.1449C52.9432 43.3295 52.4673 43.4219 51.9086 43.4219H49.9875V42.1861H51.66C51.9536 42.1861 52.1974 42.1458 52.3916 42.0653C52.5857 41.9848 52.7301 41.8641 52.8248 41.7031C52.9219 41.5421 52.9704 41.3421 52.9704 41.103C52.9704 40.8615 52.9219 40.6579 52.8248 40.4922C52.7301 40.3265 52.5845 40.201 52.388 40.1158C52.1939 40.0282 51.9489 39.9844 51.6529 39.9844H50.616V46H49.0784ZM53.0059 42.6903L54.8135 46H53.116L51.3475 42.6903H53.0059ZM62.3241 42.3636C62.3241 43.1567 62.1738 43.8314 61.8731 44.3878C61.5748 44.9441 61.1676 45.3691 60.6515 45.6626C60.1378 45.9538 59.5601 46.0994 58.9186 46.0994C58.2723 46.0994 57.6922 45.9527 57.1785 45.6591C56.6648 45.3655 56.2588 44.9406 55.9605 44.3842C55.6622 43.8279 55.513 43.1544 55.513 42.3636C55.513 41.5705 55.6622 40.8958 55.9605 40.3395C56.2588 39.7831 56.6648 39.3594 57.1785 39.0682C57.6922 38.7746 58.2723 38.6278 58.9186 38.6278C59.5601 38.6278 60.1378 38.7746 60.6515 39.0682C61.1676 39.3594 61.5748 39.7831 61.8731 40.3395C62.1738 40.8958 62.3241 41.5705 62.3241 42.3636ZM60.7652 42.3636C60.7652 41.8499 60.6882 41.4167 60.5343 41.0639C60.3828 40.7112 60.1686 40.4437 59.8916 40.2614C59.6146 40.0791 59.2903 39.9879 58.9186 39.9879C58.5469 39.9879 58.2225 40.0791 57.9456 40.2614C57.6686 40.4437 57.4531 40.7112 57.2992 41.0639C57.1477 41.4167 57.072 41.8499 57.072 42.3636C57.072 42.8774 57.1477 43.3106 57.2992 43.6634C57.4531 44.0161 57.6686 44.2836 57.9456 44.4659C58.2225 44.6482 58.5469 44.7393 58.9186 44.7393C59.2903 44.7393 59.6146 44.6482 59.8916 44.4659C60.1686 44.2836 60.3828 44.0161 60.5343 43.6634C60.6882 43.3106 60.7652 42.8774 60.7652 42.3636ZM66.3751 38.7273H67.895V43.7983C67.895 44.267 67.7896 44.6742 67.5789 45.0199C67.3706 45.3655 67.0806 45.6319 66.7089 45.8189C66.3372 46.0059 65.9051 46.0994 65.4127 46.0994C64.9747 46.0994 64.577 46.0225 64.2195 45.8686C63.8644 45.7124 63.5827 45.4756 63.3744 45.1584C63.166 44.8388 63.063 44.4375 63.0654 43.9545H64.5959C64.6007 44.1463 64.6397 44.3108 64.7131 44.4482C64.7889 44.5831 64.8919 44.6873 65.0221 44.7607C65.1547 44.8317 65.3109 44.8672 65.4908 44.8672C65.6802 44.8672 65.84 44.8269 65.9702 44.7464C66.1028 44.6636 66.2034 44.5429 66.2721 44.3842C66.3407 44.2256 66.3751 44.0303 66.3751 43.7983V38.7273ZM69.1663 46V38.7273H74.0668V39.995H70.7039V41.728H73.8147V42.9957H70.7039V44.7322H74.081V46H69.1663ZM81.7062 41.2734H80.1508C80.1224 41.0722 80.0644 40.8935 79.9768 40.7372C79.8892 40.5786 79.7768 40.4437 79.6394 40.3324C79.5021 40.2211 79.3435 40.1359 79.1636 40.0767C78.986 40.0175 78.7931 39.9879 78.5848 39.9879C78.2083 39.9879 77.8805 40.0814 77.6011 40.2685C77.3217 40.4531 77.1051 40.723 76.9512 41.0781C76.7974 41.4309 76.7204 41.8594 76.7204 42.3636C76.7204 42.8821 76.7974 43.3177 76.9512 43.6705C77.1075 44.0232 77.3253 44.2895 77.6046 44.4695C77.884 44.6494 78.2072 44.7393 78.5741 44.7393C78.7801 44.7393 78.9707 44.7121 79.1458 44.6577C79.3234 44.6032 79.4808 44.5239 79.6181 44.4197C79.7555 44.3132 79.8691 44.1842 79.9591 44.0327C80.0514 43.8812 80.1153 43.7083 80.1508 43.5142L81.7062 43.5213C81.666 43.8551 81.5653 44.1771 81.4044 44.4872C81.2457 44.795 81.0315 45.0708 80.7616 45.3146C80.4941 45.5561 80.1745 45.7479 79.8028 45.8899C79.4335 46.0296 79.0156 46.0994 78.5492 46.0994C77.9006 46.0994 77.3206 45.9527 76.8092 45.6591C76.3002 45.3655 75.8977 44.9406 75.6018 44.3842C75.3082 43.8279 75.1615 43.1544 75.1615 42.3636C75.1615 41.5705 75.3106 40.8958 75.6089 40.3395C75.9072 39.7831 76.312 39.3594 76.8234 39.0682C77.3348 38.7746 77.91 38.6278 78.5492 38.6278C78.9707 38.6278 79.3613 38.687 79.7211 38.8054C80.0833 38.9238 80.4041 39.0966 80.6835 39.3239C80.9628 39.5488 81.1901 39.8246 81.3653 40.1513C81.5429 40.478 81.6565 40.852 81.7062 41.2734ZM82.5318 39.995V38.7273H88.5049V39.995H86.2783V46H84.7584V39.995H82.5318Z" fill="#3C4A41"/>
<path d="M52.0524 7.87012V6.76216L54.6412 4.36515C54.8613 4.15208 55.046 3.96032 55.1951 3.78986C55.3467 3.61941 55.4615 3.4525 55.5396 3.28915C55.6177 3.12343 55.6568 2.94469 55.6568 2.75293C55.6568 2.53986 55.6083 2.35639 55.5112 2.2025C55.4141 2.04625 55.2815 1.9267 55.1135 1.84384C54.9454 1.75861 54.7548 1.716 54.5417 1.716C54.3192 1.716 54.1251 1.76098 53.9593 1.85094C53.7936 1.9409 53.6658 2.06993 53.5758 2.23801C53.4859 2.4061 53.4409 2.60615 53.4409 2.83816H51.9814C51.9814 2.3623 52.0891 1.94919 52.3045 1.59881C52.5199 1.24843 52.8218 0.977361 53.21 0.7856C53.5983 0.593838 54.0458 0.497958 54.5524 0.497958C55.0732 0.497958 55.5266 0.590287 55.9125 0.774947C56.3007 0.957238 56.6026 1.21055 56.818 1.53489C57.0334 1.85923 57.1412 2.23091 57.1412 2.64995C57.1412 2.92457 57.0867 3.19564 56.9778 3.46316C56.8713 3.73068 56.6807 4.02779 56.4061 4.35449C56.1315 4.67883 55.7444 5.06827 55.2449 5.52282L54.1831 6.5633V6.61301H57.237V7.87012H52.0524ZM61.2028 8.02992C60.592 8.02755 60.0664 7.87722 59.6261 7.57892C59.1881 7.28063 58.8507 6.84857 58.614 6.28276C58.3796 5.71694 58.2636 5.03631 58.266 4.24086C58.266 3.44777 58.3832 2.77187 58.6175 2.21316C58.8543 1.65444 59.1916 1.22949 59.6296 0.938299C60.07 0.644738 60.5943 0.497958 61.2028 0.497958C61.8112 0.497958 62.3344 0.644738 62.7724 0.938299C63.2127 1.23186 63.5513 1.658 63.788 2.21671C64.0247 2.77305 64.1419 3.44777 64.1396 4.24086C64.1396 5.03868 64.0212 5.7205 63.7844 6.28631C63.5501 6.85212 63.2139 7.28418 62.7759 7.58248C62.3379 7.88077 61.8136 8.02992 61.2028 8.02992ZM61.2028 6.75506C61.6194 6.75506 61.9521 6.54554 62.2006 6.12651C62.4492 5.70748 62.5723 5.07892 62.57 4.24086C62.57 3.68925 62.5131 3.22997 62.3995 2.86301C62.2882 2.49606 62.1296 2.22026 61.9237 2.0356C61.7201 1.85094 61.4798 1.75861 61.2028 1.75861C60.7885 1.75861 60.457 1.96576 60.2085 2.38006C59.9599 2.79436 59.8344 3.41462 59.832 4.24086C59.832 4.79957 59.8877 5.26595 59.9989 5.64C60.1126 6.01169 60.2724 6.29105 60.4783 6.47807C60.6843 6.66273 60.9258 6.75506 61.2028 6.75506ZM65.236 7.87012V6.76216L67.8248 4.36515C68.0449 4.15208 68.2296 3.96032 68.3787 3.78986C68.5302 3.61941 68.6451 3.4525 68.7232 3.28915C68.8013 3.12343 68.8404 2.94469 68.8404 2.75293C68.8404 2.53986 68.7918 2.35639 68.6948 2.2025C68.5977 2.04625 68.4651 1.9267 68.2971 1.84384C68.129 1.75861 67.9384 1.716 67.7253 1.716C67.5028 1.716 67.3087 1.76098 67.1429 1.85094C66.9772 1.9409 66.8494 2.06993 66.7594 2.23801C66.6694 2.4061 66.6245 2.60615 66.6245 2.83816H65.165C65.165 2.3623 65.2727 1.94919 65.4881 1.59881C65.7035 1.24843 66.0054 0.977361 66.3936 0.7856C66.7819 0.593838 67.2293 0.497958 67.736 0.497958C68.2568 0.497958 68.7102 0.590287 69.0961 0.774947C69.4843 0.957238 69.7862 1.21055 70.0016 1.53489C70.217 1.85923 70.3248 2.23091 70.3248 2.64995C70.3248 2.92457 70.2703 3.19564 70.1614 3.46316C70.0549 3.73068 69.8643 4.02779 69.5897 4.35449C69.315 4.67883 68.928 5.06827 68.4284 5.52282L67.3667 6.5633V6.61301H70.4206V7.87012H65.236ZM74.223 7.96955C73.6927 7.96955 73.2204 7.8784 72.8061 7.69611C72.3942 7.51145 72.0687 7.25814 71.8295 6.93617C71.5928 6.61183 71.4709 6.23778 71.4638 5.81401H73.0121C73.0215 5.99157 73.0795 6.14782 73.1861 6.28276C73.295 6.41533 73.4394 6.51832 73.6193 6.59171C73.7992 6.6651 74.0017 6.70179 74.2266 6.70179C74.4609 6.70179 74.6681 6.66036 74.848 6.5775C75.0279 6.49464 75.1688 6.37982 75.2706 6.23304C75.3724 6.08626 75.4233 5.91699 75.4233 5.72523C75.4233 5.5311 75.3688 5.35946 75.2599 5.21032C75.1534 5.0588 74.9995 4.94043 74.7983 4.8552C74.5994 4.76998 74.3627 4.72736 74.0881 4.72736H73.4098V3.5981H74.0881C74.3201 3.5981 74.5249 3.55785 74.7024 3.47736C74.8823 3.39687 75.022 3.2856 75.1214 3.14355C75.2209 2.99914 75.2706 2.83105 75.2706 2.63929C75.2706 2.457 75.2268 2.2972 75.1392 2.15989C75.054 2.02021 74.9332 1.91131 74.777 1.83319C74.6231 1.75506 74.4432 1.716 74.2372 1.716C74.0289 1.716 73.8383 1.75388 73.6655 1.82963C73.4927 1.90302 73.3542 2.00837 73.25 2.14569C73.1458 2.283 73.0902 2.44398 73.0831 2.62864H71.6094C71.6165 2.20961 71.736 1.84029 71.968 1.52069C72.2 1.20108 72.5125 0.951319 72.9055 0.771395C73.3009 0.589104 73.7472 0.497958 74.2443 0.497958C74.7462 0.497958 75.1854 0.589104 75.5618 0.771395C75.9382 0.953687 76.2306 1.1999 76.4389 1.51003C76.6496 1.8178 76.7538 2.16344 76.7514 2.54696C76.7538 2.95416 76.6271 3.29389 76.3714 3.56614C76.1181 3.83839 75.7879 4.01122 75.3807 4.08461V4.14142C75.9157 4.21008 76.3229 4.39592 76.6023 4.69895C76.884 4.99962 77.0237 5.37604 77.0213 5.82821C77.0237 6.24251 76.9041 6.61065 76.6626 6.93262C76.4235 7.25459 76.0933 7.5079 75.6719 7.69256C75.2505 7.87722 74.7675 7.96955 74.223 7.96955Z" fill="#3C4A41"/>
<path opacity="0.6" d="M59.799 63V55.7273H60.8608V58.4297H60.9247C60.9863 58.3161 61.075 58.1847 61.1911 58.0355C61.3071 57.8864 61.468 57.7562 61.674 57.6449C61.88 57.5312 62.1522 57.4744 62.4908 57.4744C62.9311 57.4744 63.3241 57.5857 63.6697 57.8082C64.0154 58.0308 64.2865 58.3516 64.483 58.7706C64.6818 59.1896 64.7812 59.6939 64.7812 60.2834C64.7812 60.8729 64.683 61.3783 64.4865 61.7997C64.29 62.2187 64.0201 62.5419 63.6768 62.7692C63.3336 62.9941 62.9418 63.1065 62.5014 63.1065C62.17 63.1065 61.8989 63.0509 61.6882 62.9396C61.4799 62.8284 61.3165 62.6982 61.1982 62.549C61.0798 62.3999 60.9886 62.2673 60.9247 62.1513H60.8359V63H59.799ZM60.8395 60.2727C60.8395 60.6562 60.8951 60.9924 61.0064 61.2812C61.1177 61.5701 61.2786 61.7962 61.4893 61.9595C61.7 62.1205 61.9581 62.201 62.2635 62.201C62.5807 62.201 62.8459 62.117 63.0589 61.9489C63.272 61.7784 63.433 61.5476 63.5419 61.2564C63.6532 60.9652 63.7088 60.6373 63.7088 60.2727C63.7088 59.9129 63.6544 59.5897 63.5455 59.3033C63.4389 59.0168 63.2779 58.7907 63.0625 58.625C62.8494 58.4593 62.5831 58.3764 62.2635 58.3764C61.9557 58.3764 61.6953 58.4557 61.4822 58.6143C61.2715 58.773 61.1117 58.9943 61.0028 59.2784C60.8939 59.5625 60.8395 59.8939 60.8395 60.2727ZM66.4592 65.0455C66.3005 65.0455 66.1561 65.0324 66.0259 65.0064C65.8957 64.9827 65.7987 64.9567 65.7347 64.9283L65.9904 64.0582C66.1845 64.1103 66.3574 64.1328 66.5089 64.1257C66.6604 64.1186 66.7942 64.0618 66.9102 63.9553C67.0285 63.8487 67.1327 63.6747 67.2227 63.4332L67.354 63.071L65.3583 57.5455H66.4947L67.8761 61.7784H67.9329L69.3143 57.5455H70.4542L68.2063 63.728C68.1022 64.0121 67.9696 64.2524 67.8086 64.4489C67.6476 64.6477 67.4558 64.7969 67.2333 64.8963C67.0108 64.9957 66.7527 65.0455 66.4592 65.0455Z" fill="#3C4A41"/>
<g clip-path="url(#clip1_1106_411)">
<mask id="mask0_1106_411" style="mask-type:luminance" maskUnits="userSpaceOnUse" x="33" y="84" width="64" height="14">
<path d="M33 84H97V98H33V84Z" fill="white"/>
</mask>
<g mask="url(#mask0_1106_411)">
<path d="M39.9634 97.9093C40.7612 97.9093 41.4078 97.268 41.4078 96.4774C41.4078 95.6868 40.7607 95.0459 39.9634 95.0459C39.1656 95.0459 38.5186 95.6868 38.5186 96.4774C38.5186 97.2684 39.1656 97.9093 39.9634 97.9093Z" fill="#3C4A41"/>
<path d="M46.9744 85.4341C46.9722 84.6414 46.3199 83.9978 45.5195 84L34.5167 84.0289C33.6781 84.0306 32.9978 84.7088 33 85.5396L33.0035 86.9081L45.5273 86.8753C46.3273 86.8735 46.9766 86.2264 46.9739 85.4337L46.9744 85.4341Z" fill="#3C4A41"/>
<path d="M45.4993 89.5256C44.7186 89.5278 44.0851 90.1591 44.0873 90.9326L44.1018 96.5046C44.104 97.2781 44.7409 97.9059 45.5212 97.9038H45.5913C46.3716 97.9016 47.0055 97.2707 47.0028 96.4972L46.9884 90.9943C46.9862 90.1828 46.3181 89.5239 45.4988 89.5261L45.4993 89.5256ZM41.3932 90.9685C41.391 90.1758 40.7383 89.5326 39.9387 89.5344L33.0127 89.5528L33.0307 96.4644C33.0329 97.2764 33.7014 97.9348 34.5202 97.9331C35.3005 97.9309 35.9343 97.2996 35.9321 96.5261L35.9212 92.4206L39.9462 92.4101C40.7462 92.4079 41.3954 91.7613 41.3932 90.9685ZM52.9566 88.2512H54.9993V87.0279H52.9566V85.5378H55.7971V84.2857H51.6064V90.6294H52.9566V88.2516V88.2512ZM57.7101 86.0961H56.4477V90.6294H57.7106L57.7101 86.0961ZM59.8357 88.1243C59.8357 87.3097 60.2403 86.8608 60.9754 86.8608C61.711 86.8608 62.116 87.3097 62.116 88.1243V90.0414C62.1166 90.198 62.1795 90.3479 62.2908 90.4583C62.4021 90.5686 62.5527 90.6303 62.7096 90.6299H63.3789V88.1243C63.3789 86.5966 62.4803 85.6853 60.9759 85.6853C59.471 85.6853 58.5724 86.5966 58.5724 88.1243V90.6299H59.8357V88.1243ZM71.2067 88.1243C71.2067 87.3097 71.6113 86.8608 72.3464 86.8608C73.082 86.8608 73.487 87.3097 73.487 88.1243V90.0336C73.487 90.363 73.7561 90.6299 74.0884 90.6299H74.7503V88.1243C74.7503 86.5966 73.8517 85.6853 72.3468 85.6853C70.842 85.6853 69.9433 86.5966 69.9433 88.1243V90.6299H71.2067V88.1243ZM77.9306 86.8613C78.5154 86.8613 78.9827 87.1561 79.1808 87.6509L79.1957 87.689H80.463L80.4481 87.6173C80.2052 86.4434 79.2168 85.6853 77.9306 85.6853C76.4157 85.6853 75.3158 86.751 75.3158 88.2193C75.3158 89.6875 76.4157 90.7537 77.9306 90.7537C79.2168 90.7537 80.2052 89.9955 80.4481 88.8213L80.463 88.7499H79.1957L79.1808 88.7876C78.9827 89.2824 78.5154 89.5777 77.9306 89.5777C77.1407 89.5777 76.5888 89.019 76.5888 88.2193C76.5888 87.4195 77.1407 86.8613 77.9306 86.8613ZM51.6161 92.1918V97.8688H52.9662V91.525H52.2894C52.2013 91.5247 52.1141 91.5416 52.0325 91.5749C51.951 91.6083 51.8769 91.6573 51.8144 91.7192C51.7519 91.7811 51.7022 91.8547 51.6681 91.9358C51.6341 92.0169 51.6164 92.1038 51.6161 92.1918ZM56.1027 92.9241C54.5978 92.9241 53.6992 93.8354 53.6992 95.3632V97.8688H54.9625V95.3632C54.9625 94.5486 55.3675 94.0997 56.1022 94.0997C56.8378 94.0997 57.2428 94.5486 57.2428 95.3628V97.2619C57.2428 97.5971 57.5168 97.8688 57.8548 97.8688H58.5062V95.3632C58.5062 93.8354 57.6075 92.9241 56.1027 92.9241ZM61.7075 92.9241C60.2026 92.9241 59.304 93.8354 59.304 95.3632V97.8688H60.5673V95.3632C60.5673 94.5486 60.9724 94.0997 61.7075 94.0997C62.4426 94.0997 62.8477 94.5486 62.8477 95.3628V97.2637C62.8477 97.5979 63.1208 97.8688 63.4578 97.8688H64.111V95.3632C64.111 93.8354 63.2124 92.9241 61.7075 92.9241ZM67.2917 92.9241C65.7763 92.9241 64.6769 93.9899 64.6769 95.4581C64.6769 96.9264 65.7763 97.9926 67.2917 97.9926C68.8067 97.9926 69.9061 96.9268 69.9061 95.4581C69.9061 93.9894 68.8067 92.9237 67.2917 92.9237V92.9241ZM67.2917 96.8166C66.5014 96.8166 65.9495 96.2579 65.9495 95.4581C65.9495 94.6584 66.5018 94.0997 67.2917 94.0997C68.0882 94.0997 68.6239 94.6457 68.6239 95.4581C68.6239 96.2706 68.0886 96.8166 67.2917 96.8166ZM73.7732 93.0475L72.4998 96.5934L71.2268 93.0475H69.8478L71.7428 97.8307L71.7577 97.8683H73.213L75.1234 93.0471L73.7732 93.0475ZM89.0131 92.9241C87.4977 92.9241 86.3983 93.9899 86.3983 95.4581C86.3983 96.9264 87.4977 97.9926 89.0131 97.9926C90.5281 97.9926 91.6275 96.9268 91.6275 95.4581C91.6275 93.9894 90.5281 92.9237 89.0131 92.9237V92.9241ZM89.0131 96.8166C88.2228 96.8166 87.6713 96.2579 87.6713 95.4581C87.6713 94.6584 88.2228 94.0997 89.0131 94.0997C89.8101 94.0997 90.3453 94.6457 90.3453 95.4581C90.3453 96.2706 89.8101 96.8166 89.0131 96.8166ZM94.5965 92.9241C93.0916 92.9241 92.1934 93.8354 92.1934 95.3632V97.8688H93.4563V95.3632C93.4563 94.5486 93.8613 94.0997 94.5965 94.0997C95.332 94.0997 95.7366 94.5486 95.7366 95.3628V97.2948C95.7366 97.6115 95.9961 97.8688 96.3157 97.8688H97V95.3632C97 93.8354 96.1013 92.9241 94.5965 92.9241ZM57.7154 85.5181L57.7141 85.1008C57.7132 84.6431 57.3704 84.2726 56.9487 84.2734L56.4402 84.2748L56.4433 85.5216L57.7154 85.5181ZM83.4101 85.6853C81.8947 85.6853 80.7953 86.751 80.7953 88.2193C80.7953 89.6875 81.8947 90.7537 83.4101 90.7537C84.4862 90.7537 85.348 90.2322 85.7509 89.3589H84.3043C84.0856 89.5243 83.791 89.6061 83.4101 89.6061L83.3956 89.6053C83.2804 89.6045 83.1657 89.5905 83.0537 89.5637C82.8017 89.5044 82.5735 89.3707 82.3988 89.18C82.1765 88.9363 82.045 88.6034 82.045 88.2193C82.045 87.8658 82.1559 87.5547 82.3466 87.318C82.5224 87.0818 82.9204 86.8324 83.4101 86.8324C84.0488 86.8324 84.4691 87.1811 84.6528 87.7052H82.8753V88.2171C82.8759 88.34 82.9253 88.4576 83.0128 88.5442C83.1002 88.6307 83.2185 88.6791 83.3417 88.6786H86.0051V88.2193C86.0051 86.751 84.9136 85.6853 83.4101 85.6853ZM85.7483 93.3406H84.4854V97.874H85.7483V93.3406ZM84.9864 91.518L84.4779 91.5193L84.481 92.7662L85.7531 92.7627L85.7522 92.3453C85.7509 91.8873 85.4081 91.5167 84.9864 91.518ZM82.3072 91.5403H81.6724C81.5063 91.5398 81.3468 91.6052 81.229 91.722C81.1111 91.8388 81.0445 91.9975 81.0438 92.1633V95.8724C81.0438 97.1386 81.7728 97.8644 83.044 97.8644V97.8639H83.393V96.6879H83.0401C82.554 96.6866 82.3072 96.4123 82.3072 95.8724V94.1946H83.8151V93.0475H82.3072V91.5403ZM66.3677 90.7537C66.6342 90.7537 66.8814 90.7113 67.1032 90.6303V89.4797C66.941 89.5436 66.7582 89.5777 66.5597 89.5777C65.7693 89.5777 65.2174 89.019 65.2174 88.2193C65.2174 87.4195 65.7697 86.8608 66.5597 86.8608C67.3241 86.8608 67.8835 87.4147 67.8835 88.1882L67.8848 90.0309C67.8848 90.3621 68.1561 90.6303 68.4897 90.6303L69.1547 90.6299V88.2569C69.1547 86.7186 68.1158 85.6844 66.5689 85.6844C65.0223 85.6844 63.9449 86.7466 63.9449 88.2665C63.9449 89.8993 65.1635 90.7533 66.3672 90.7533L66.3677 90.7537ZM77.6926 92.9316C76.1474 92.9316 75.0686 93.9934 75.0686 95.5137C75.0686 97.146 76.2872 98 77.4909 98C77.7416 98.0023 77.9907 97.9607 78.2269 97.8771V96.7264C78.0535 96.7929 77.8691 96.8262 77.6834 96.8244C76.893 96.8244 76.3411 96.2658 76.3411 95.466C76.3411 94.6658 76.893 94.1076 77.6834 94.1076C78.4479 94.1076 79.0077 94.661 79.0077 95.4345L79.0085 97.2777C79.0093 97.4371 79.0735 97.5897 79.1869 97.702C79.3003 97.8143 79.4537 97.8771 79.6135 97.8766H80.2784V95.5041C80.2784 93.9654 79.2395 92.9316 77.6926 92.9316Z" fill="#3C4A41"/>
</g>
</g>
</g>
<defs>
<clipPath id="clip0_1106_411">
<rect width="130" height="98" fill="white"/>
</clipPath>
<clipPath id="clip1_1106_411">
<rect width="64" height="14" fill="white" transform="translate(33 84)"/>
</clipPath>
</defs>
</svg>
