<svg width="20" height="20" viewBox="0 0 20 20" fill="none" xmlns="http://www.w3.org/2000/svg">
<path d="M9.83083 3.82012C11.7895 3.82012 12.0215 3.82871 12.7918 3.86308C13.5077 3.89458 13.8943 4.01485 14.152 4.11507C14.4928 4.2468 14.7391 4.40716 14.9939 4.66202C15.2517 4.91974 15.4092 5.16315 15.5408 5.50393C15.6411 5.76164 15.7613 6.15109 15.7928 6.86413C15.8273 7.63731 15.8358 7.86926 15.8358 9.82508C15.8358 11.7838 15.8273 12.0157 15.7928 12.7861C15.7613 13.502 15.6411 13.8886 15.5408 14.1462C15.4092 14.4871 15.2487 14.7333 14.9939 14.9882C14.7362 15.2459 14.4928 15.4034 14.152 15.5352C13.8943 15.6353 13.5048 15.7556 12.7918 15.7871C12.0186 15.8215 11.7867 15.8301 9.83083 15.8301C7.87212 15.8301 7.64017 15.8215 6.86986 15.7871C6.15396 15.7556 5.76737 15.6353 5.50965 15.5352C5.16888 15.4034 4.92261 15.243 4.66775 14.9882C4.41002 14.7304 4.25253 14.4871 4.1208 14.1462C4.02058 13.8886 3.9003 13.4991 3.8688 12.7861C3.83444 12.0129 3.82585 11.7809 3.82585 9.82508C3.82585 7.86639 3.83444 7.63444 3.8688 6.86413C3.9003 6.14823 4.02058 5.76164 4.1208 5.50393C4.25253 5.16315 4.41289 4.91688 4.66775 4.66202C4.92547 4.4043 5.16888 4.2468 5.50965 4.11507C5.76737 4.01485 6.15682 3.89458 6.86986 3.86308C7.64017 3.82871 7.87212 3.82012 9.83083 3.82012ZM9.83083 2.5C7.84062 2.5 7.59149 2.50859 6.80972 2.54295C6.03082 2.57732 5.49533 2.70332 5.03142 2.88372C4.54748 3.07272 4.13798 3.32186 3.73135 3.73135C3.32186 4.13798 3.07272 4.54747 2.88372 5.02857C2.70332 5.49533 2.57732 6.02796 2.54295 6.80686C2.50859 7.59149 2.5 7.84062 2.5 9.83083C2.5 11.821 2.50859 12.0702 2.54295 12.8519C2.57732 13.6308 2.70332 14.1663 2.88372 14.6302C3.07272 15.1142 3.32186 15.5237 3.73135 15.9303C4.13798 16.3369 4.54747 16.5889 5.02857 16.7751C5.49533 16.9555 6.02796 17.0815 6.80686 17.1158C7.58862 17.1502 7.83776 17.1587 9.828 17.1587C11.8182 17.1587 12.0673 17.1502 12.8491 17.1158C13.628 17.0815 14.1635 16.9555 14.6273 16.7751C15.1084 16.5889 15.5179 16.3369 15.9246 15.9303C16.3313 15.5237 16.5832 15.1142 16.7693 14.6331C16.9497 14.1663 17.0758 13.6337 17.1101 12.8548C17.1445 12.073 17.1531 11.8239 17.1531 9.83367C17.1531 7.84348 17.1445 7.59435 17.1101 6.81259C17.0758 6.03369 16.9497 5.49819 16.7693 5.03429C16.5889 4.54748 16.3398 4.13798 15.9303 3.73135C15.5237 3.32472 15.1142 3.07273 14.6331 2.88658C14.1663 2.70618 13.6337 2.58018 12.8548 2.54582C12.0702 2.50859 11.821 2.5 9.83083 2.5Z" fill="#3C4A41"/>
<path d="M9.83084 6.06519C7.75185 6.06519 6.06519 7.75185 6.06519 9.83084C6.06519 11.9098 7.75185 13.5965 9.83084 13.5965C11.9098 13.5965 13.5965 11.9098 13.5965 9.83084C13.5965 7.75185 11.9098 6.06519 9.83084 6.06519ZM9.83084 12.2735C8.48209 12.2735 7.38817 11.1796 7.38817 9.83084C7.38817 8.48209 8.48209 7.38817 9.83084 7.38817C11.1796 7.38817 12.2735 8.48209 12.2735 9.83084C12.2735 11.1796 11.1796 12.2735 9.83084 12.2735Z" fill="#3C4A41"/>
<path d="M14.6245 5.91624C14.6245 6.40305 14.2292 6.79537 13.7453 6.79537C13.2585 6.79537 12.8662 6.40019 12.8662 5.91624C12.8662 5.42943 13.2614 5.03711 13.7453 5.03711C14.2292 5.03711 14.6245 5.43229 14.6245 5.91624Z" fill="#3C4A41"/>
</svg>
