<svg width="64" height="65" viewBox="0 0 64 65" fill="none" xmlns="http://www.w3.org/2000/svg">
<path d="M36.2561 24.6613C38.3219 25.8504 40.9544 25.1307 42.145 23.0445C43.3405 20.9497 42.2208 17.3299 42.5958 13.4963C39.5093 15.722 35.8382 16.5788 34.6474 18.6654C33.4521 20.7597 34.1624 23.4386 36.2318 24.6473L36.2561 24.6613Z" fill="#3C4A41"/>
<path d="M42.086 0.573144C40.0202 -0.615913 37.3877 0.103794 36.1971 2.18997C35.0015 4.28479 36.1213 7.90455 35.7463 11.7382C38.8328 9.51251 42.5038 8.65571 43.6947 6.56907C44.89 4.47471 44.1797 1.79584 42.1103 0.587198L42.086 0.573144Z" fill="#3C4A41"/>
<path d="M10.0861 56.643C8.0353 55.4277 7.33519 52.7615 8.5258 50.6754C9.72134 48.5806 13.38 47.7517 16.4744 45.5063C16.1122 49.3232 17.2143 52.9678 16.0234 55.0545C14.8282 57.1488 12.1797 57.866 10.1103 56.6573L10.0861 56.643Z" fill="#3C4A41"/>
<path d="M53.8655 7.45315C51.7997 6.26409 49.1672 6.9838 47.9766 9.06997C46.7811 11.1648 47.9008 14.7846 47.5258 18.6182C50.6123 16.3925 54.2834 15.5357 55.4742 13.4491C56.6695 11.3547 55.9592 8.67584 53.8898 7.4672L53.8655 7.45315Z" fill="#3C4A41"/>
<path d="M21.8657 63.523C19.8148 62.3077 19.1147 59.6415 20.3053 57.5554C21.5009 55.4606 25.1595 54.6317 28.2539 52.3863C27.8918 56.2032 28.9938 59.8478 27.803 61.9345C26.6077 64.0288 23.9592 64.746 21.8899 63.5373L21.8657 63.523Z" fill="#3C4A41"/>
<path d="M27.7923 39.4914C29.8432 40.7068 30.5433 43.3729 29.3527 45.4591C28.1571 47.5539 24.4985 48.3828 21.4041 50.6281C21.7662 46.8112 20.6642 43.1666 21.855 41.08C23.0503 38.9856 25.6988 38.2685 27.7682 39.4771L27.7923 39.4914Z" fill="#3C4A41"/>
<path d="M36.2561 24.6613C38.3219 25.8504 40.9544 25.1307 42.145 23.0445C43.3405 20.9497 42.2208 17.3299 42.5958 13.4963C39.5093 15.722 35.8382 16.5788 34.6474 18.6654C33.4521 20.7597 34.1624 23.4386 36.2318 24.6473L36.2561 24.6613Z" fill="#3C4A41"/>
<path d="M42.086 0.573144C40.0202 -0.615913 37.3877 0.103794 36.1971 2.18997C35.0015 4.28479 36.1213 7.90455 35.7463 11.7382C38.8328 9.51251 42.5038 8.65571 43.6947 6.56907C44.89 4.47471 44.1797 1.79584 42.1103 0.587198L42.086 0.573144Z" fill="#3C4A41"/>
<path d="M10.0861 56.643C8.0353 55.4277 7.33519 52.7615 8.5258 50.6754C9.72134 48.5806 13.38 47.7517 16.4744 45.5063C16.1122 49.3232 17.2143 52.9678 16.0234 55.0545C14.8282 57.1488 12.1797 57.866 10.1103 56.6573L10.0861 56.643Z" fill="#3C4A41"/>
<path d="M53.8655 7.45315C51.7997 6.26409 49.1672 6.9838 47.9766 9.06997C46.7811 11.1648 47.9008 14.7846 47.5258 18.6182C50.6123 16.3925 54.2834 15.5357 55.4742 13.4491C56.6695 11.3547 55.9592 8.67584 53.8898 7.4672L53.8655 7.45315Z" fill="#3C4A41"/>
<path d="M21.8657 63.523C19.8148 62.3077 19.1147 59.6415 20.3053 57.5554C21.5009 55.4606 25.1595 54.6317 28.2539 52.3863C27.8918 56.2032 28.9938 59.8478 27.803 61.9345C26.6077 64.0288 23.9592 64.746 21.8899 63.5373L21.8657 63.523Z" fill="#3C4A41"/>
<path d="M27.7923 39.4914C29.8432 40.7068 30.5433 43.3729 29.3527 45.4591C28.1571 47.5539 24.4985 48.3828 21.4041 50.6281C21.7662 46.8112 20.6642 43.1666 21.855 41.08C23.0503 38.9856 25.6988 38.2685 27.7682 39.4771L27.7923 39.4914Z" fill="#3C4A41"/>
<path d="M40.4637 32.0905C40.4787 34.4949 42.411 36.4413 44.7923 36.4413C47.1833 36.4413 49.7222 33.6504 53.1916 32.0621C49.743 30.4709 47.174 27.6831 44.7923 27.6831C42.4017 27.6831 40.4636 29.6448 40.4636 32.0621L40.4637 32.0905Z" fill="#3C4A41"/>
<path d="M63.9999 25.1539C63.9849 22.7496 62.0525 20.8031 59.6713 20.8031C57.2802 20.8031 54.7413 23.594 51.2719 25.1823C54.7205 26.7735 57.2896 29.5613 59.6713 29.5613C62.0619 29.5613 64 27.5996 64 25.1823L63.9999 25.1539Z" fill="#3C4A41"/>
<path d="M0.000132751 25.1539C0.0151256 22.7496 1.94748 20.8031 4.3287 20.8031C6.71978 20.8031 9.25869 23.594 12.7281 25.1823C9.27947 26.7735 6.71045 29.5613 4.3287 29.5613C1.93814 29.5613 -2.905e-08 27.5996 5.84082e-08 25.1823L0.000132751 25.1539Z" fill="#3C4A41"/>
<path d="M63.9999 38.9139C63.9849 36.5095 62.0525 34.5631 59.6713 34.5631C57.2802 34.5631 54.7413 37.354 51.2719 38.9422C54.7205 40.5335 57.2896 43.3213 59.6713 43.3213C62.0619 43.3213 64 41.3595 64 38.9422L63.9999 38.9139Z" fill="#3C4A41"/>
<path d="M0.000132448 38.914C0.0151253 36.5096 1.94748 34.5631 4.3287 34.5631C6.71978 34.5631 9.25869 37.354 12.7281 38.9423C9.27947 40.5335 6.71045 43.3213 4.3287 43.3213C1.93814 43.3213 -8.74582e-08 41.3596 0 38.9423L0.000132448 38.914Z" fill="#3C4A41"/>
<path d="M23.5363 32.0904C23.5213 34.4948 21.5889 36.4413 19.2077 36.4413C16.8166 36.4413 14.2777 33.6504 10.8083 32.0621C14.2569 30.4709 16.8259 27.6831 19.2077 27.6831C21.5982 27.6831 23.5364 29.6448 23.5364 32.0621L23.5363 32.0904Z" fill="#3C4A41"/>
<path d="M40.4637 32.0905C40.4787 34.4949 42.411 36.4413 44.7923 36.4413C47.1833 36.4413 49.7222 33.6504 53.1916 32.0621C49.743 30.4709 47.174 27.6831 44.7923 27.6831C42.4017 27.6831 40.4636 29.6448 40.4636 32.0621L40.4637 32.0905Z" fill="#3C4A41"/>
<path d="M63.9999 25.1539C63.9849 22.7496 62.0525 20.8031 59.6713 20.8031C57.2802 20.8031 54.7413 23.594 51.2719 25.1823C54.7205 26.7735 57.2896 29.5613 59.6713 29.5613C62.0619 29.5613 64 27.5996 64 25.1823L63.9999 25.1539Z" fill="#3C4A41"/>
<path d="M0.000132751 25.1539C0.0151256 22.7496 1.94748 20.8031 4.3287 20.8031C6.71978 20.8031 9.25869 23.594 12.7281 25.1823C9.27947 26.7735 6.71045 29.5613 4.3287 29.5613C1.93814 29.5613 -2.905e-08 27.5996 5.84082e-08 25.1823L0.000132751 25.1539Z" fill="#3C4A41"/>
<path d="M63.9999 38.9139C63.9849 36.5095 62.0525 34.5631 59.6713 34.5631C57.2802 34.5631 54.7413 37.354 51.2719 38.9422C54.7205 40.5335 57.2896 43.3213 59.6713 43.3213C62.0619 43.3213 64 41.3595 64 38.9422L63.9999 38.9139Z" fill="#3C4A41"/>
<path d="M0.000132448 38.914C0.0151253 36.5096 1.94748 34.5631 4.3287 34.5631C6.71978 34.5631 9.25869 37.354 12.7281 38.9423C9.27947 40.5335 6.71045 43.3213 4.3287 43.3213C1.93814 43.3213 -8.74582e-08 41.3596 0 38.9423L0.000132448 38.914Z" fill="#3C4A41"/>
<path d="M23.5363 32.0904C23.5213 34.4948 21.5889 36.4413 19.2077 36.4413C16.8166 36.4413 14.2777 33.6504 10.8083 32.0621C14.2569 30.4709 16.8259 27.6831 19.2077 27.6831C21.5982 27.6831 23.5364 29.6448 23.5364 32.0621L23.5363 32.0904Z" fill="#3C4A41"/>
<path d="M27.744 24.6613C25.6782 25.8504 23.0457 25.1307 21.8551 23.0445C20.6595 20.9497 21.7793 17.3299 21.4043 13.4963C24.4908 15.722 28.1618 16.5788 29.3527 18.6654C30.548 20.7597 29.8377 23.4386 27.7683 24.6473L27.744 24.6613Z" fill="#3C4A41"/>
<path d="M21.9141 0.573121C23.9799 -0.615936 26.6124 0.103771 27.803 2.18995C28.9985 4.28476 27.8788 7.90453 28.2538 11.7382C25.1673 9.51248 21.4962 8.65568 20.3053 6.56905C19.1101 4.47469 19.8204 1.79582 21.8897 0.587174L21.9141 0.573121Z" fill="#3C4A41"/>
<path d="M53.9139 56.643C55.9647 55.4277 56.6649 52.7615 55.4743 50.6754C54.2787 48.5806 50.6201 47.7517 47.5257 45.5063C47.8878 49.3232 46.7857 52.9678 47.9766 55.0545C49.1719 57.1488 51.8203 57.866 53.8897 56.6573L53.9139 56.643Z" fill="#3C4A41"/>
<path d="M10.1345 7.4531C12.2004 6.26404 14.8328 6.98375 16.0234 9.06993C17.219 11.1647 16.0992 14.7845 16.4742 18.6182C13.3878 16.3925 9.71667 15.5357 8.5258 13.449C7.33052 11.3547 8.04084 8.6758 10.1102 7.46715L10.1345 7.4531Z" fill="#3C4A41"/>
<path d="M42.1344 63.523C44.1852 62.3077 44.8853 59.6415 43.6947 57.5554C42.4992 55.4606 38.8405 54.6317 35.7462 52.3863C36.1083 56.2032 35.0062 59.8478 36.1971 61.9345C37.3923 64.0288 40.0408 64.746 42.1102 63.5373L42.1344 63.523Z" fill="#3C4A41"/>
<path d="M36.2077 39.4914C34.1569 40.7067 33.4568 43.3729 34.6474 45.459C35.8429 47.5539 39.5015 48.3827 42.5959 50.6281C42.2338 46.8112 43.3359 43.1666 42.145 41.0799C40.9497 38.9856 38.3013 38.2685 36.2319 39.4771L36.2077 39.4914Z" fill="#3C4A41"/>
<path d="M27.744 24.6613C25.6782 25.8504 23.0457 25.1307 21.8551 23.0445C20.6595 20.9497 21.7793 17.3299 21.4043 13.4963C24.4908 15.722 28.1618 16.5788 29.3527 18.6654C30.548 20.7597 29.8377 23.4386 27.7683 24.6473L27.744 24.6613Z" fill="#3C4A41"/>
<path d="M21.9141 0.573121C23.9799 -0.615936 26.6124 0.103771 27.803 2.18995C28.9985 4.28476 27.8788 7.90453 28.2538 11.7382C25.1673 9.51248 21.4962 8.65568 20.3053 6.56905C19.1101 4.47469 19.8204 1.79582 21.8897 0.587174L21.9141 0.573121Z" fill="#3C4A41"/>
<path d="M53.9139 56.643C55.9647 55.4277 56.6649 52.7615 55.4743 50.6754C54.2787 48.5806 50.6201 47.7517 47.5257 45.5063C47.8878 49.3232 46.7857 52.9678 47.9766 55.0545C49.1719 57.1488 51.8203 57.866 53.8897 56.6573L53.9139 56.643Z" fill="#3C4A41"/>
<path d="M10.1345 7.4531C12.2004 6.26404 14.8328 6.98375 16.0234 9.06993C17.219 11.1647 16.0992 14.7845 16.4742 18.6182C13.3878 16.3925 9.71667 15.5357 8.5258 13.449C7.33052 11.3547 8.04084 8.6758 10.1102 7.46715L10.1345 7.4531Z" fill="#3C4A41"/>
<path d="M42.1344 63.523C44.1852 62.3077 44.8853 59.6415 43.6947 57.5554C42.4992 55.4606 38.8405 54.6317 35.7462 52.3863C36.1083 56.2032 35.0062 59.8478 36.1971 61.9345C37.3923 64.0288 40.0408 64.746 42.1102 63.5373L42.1344 63.523Z" fill="#3C4A41"/>
<path d="M36.2077 39.4914C34.1569 40.7067 33.4568 43.3729 34.6474 45.459C35.8429 47.5539 39.5015 48.3827 42.5959 50.6281C42.2338 46.8112 43.3359 43.1666 42.145 41.0799C40.9497 38.9856 38.3013 38.2685 36.2319 39.4771L36.2077 39.4914Z" fill="#3C4A41"/>
</svg>
