<svg width="20" height="20" viewBox="0 0 20 20" fill="none" xmlns="http://www.w3.org/2000/svg">
<path d="M7.9443 16.0803C13.477 16.0803 16.5032 11.4965 16.5032 7.52146C16.5032 7.39127 16.5032 7.26166 16.4944 7.13263C17.0831 6.70681 17.5912 6.17956 17.9952 5.57557C17.4462 5.81895 16.8637 5.97849 16.2674 6.04884C16.8954 5.67295 17.3654 5.08165 17.5899 4.38504C16.9994 4.73546 16.3534 4.9824 15.6797 5.11519C15.2262 4.63293 14.6264 4.31359 13.9731 4.20658C13.3197 4.09958 12.6494 4.21088 12.0657 4.52326C11.482 4.83563 11.0176 5.33168 10.7442 5.93463C10.4708 6.53757 10.4038 7.2138 10.5535 7.85868C9.35758 7.79868 8.18758 7.48788 7.11954 6.94643C6.0515 6.40498 5.10925 5.645 4.35395 4.71581C3.96928 5.37803 3.85146 6.16195 4.02449 6.90798C4.19751 7.65401 4.64836 8.30605 5.28525 8.73133C4.80652 8.71733 4.33821 8.58816 3.91996 8.35483V8.39291C3.92015 9.08749 4.16056 9.76049 4.60043 10.298C5.04029 10.8354 5.65252 11.2042 6.33327 11.3417C5.89041 11.4625 5.42576 11.4802 4.97501 11.3933C5.16731 11.991 5.54156 12.5136 6.04544 12.8882C6.54931 13.2627 7.15764 13.4704 7.78536 13.4823C7.16168 13.9726 6.44745 14.335 5.68356 14.5489C4.91966 14.7629 4.12108 14.8241 3.3335 14.7292C4.70915 15.6119 6.30976 16.0802 7.9443 16.078" fill="#3C4A41"/>
</svg>
