<svg width="48" height="48" viewBox="0 0 48 48" fill="none" xmlns="http://www.w3.org/2000/svg">
<rect width="48" height="48" fill="#3C4A41"/>
<path d="M24 14.25C18.9534 14.25 15 16.5563 15 19.5V28.5C15 31.4438 18.9534 33.75 24 33.75C29.0466 33.75 33 31.4438 33 28.5V19.5C33 16.5563 29.0466 14.25 24 14.25ZM31.5 24C31.5 24.9019 30.7612 25.8216 29.4741 26.5238C28.0247 27.3141 26.0803 27.75 24 27.75C21.9197 27.75 19.9753 27.3141 18.5259 26.5238C17.2387 25.8216 16.5 24.9019 16.5 24V22.44C18.0994 23.8463 20.8341 24.75 24 24.75C27.1659 24.75 29.9006 23.8425 31.5 22.44V24ZM18.5259 16.9763C19.9753 16.1859 21.9197 15.75 24 15.75C26.0803 15.75 28.0247 16.1859 29.4741 16.9763C30.7612 17.6784 31.5 18.5981 31.5 19.5C31.5 20.4019 30.7612 21.3216 29.4741 22.0237C28.0247 22.8141 26.0803 23.25 24 23.25C21.9197 23.25 19.9753 22.8141 18.5259 22.0237C17.2387 21.3216 16.5 20.4019 16.5 19.5C16.5 18.5981 17.2387 17.6784 18.5259 16.9763ZM29.4741 31.0238C28.0247 31.8141 26.0803 32.25 24 32.25C21.9197 32.25 19.9753 31.8141 18.5259 31.0238C17.2387 30.3216 16.5 29.4019 16.5 28.5V26.94C18.0994 28.3463 20.8341 29.25 24 29.25C27.1659 29.25 29.9006 28.3425 31.5 26.94V28.5C31.5 29.4019 30.7612 30.3216 29.4741 31.0238Z" fill="white"/>
<path d="M48 0H24L48 4.5V0Z" fill="white"/>
</svg>
