<svg width="48" height="48" viewBox="0 0 48 48" fill="none" xmlns="http://www.w3.org/2000/svg">
<rect width="48" height="48" fill="#FFCCCC"/>
<path d="M24 22.5C23.3696 22.5002 22.7604 22.7273 22.2836 23.1397C21.8068 23.552 21.4944 24.1222 21.4034 24.746C21.3124 25.3698 21.4489 26.0055 21.7879 26.5369C22.127 27.0683 22.646 27.46 23.25 27.6403V29.25C23.25 29.4489 23.329 29.6397 23.4697 29.7803C23.6103 29.921 23.8011 30 24 30C24.1989 30 24.3897 29.921 24.5303 29.7803C24.671 29.6397 24.75 29.4489 24.75 29.25V27.6403C25.354 27.46 25.873 27.0683 26.2121 26.5369C26.5511 26.0055 26.6876 25.3698 26.5966 24.746C26.5056 24.1222 26.1932 23.552 25.7164 23.1397C25.2396 22.7273 24.6304 22.5002 24 22.5ZM24 26.25C23.7775 26.25 23.56 26.184 23.375 26.0604C23.19 25.9368 23.0458 25.7611 22.9606 25.5555C22.8755 25.35 22.8532 25.1238 22.8966 24.9055C22.94 24.6873 23.0472 24.4868 23.2045 24.3295C23.3618 24.1722 23.5623 24.065 23.7805 24.0216C23.9988 23.9782 24.225 24.0005 24.4305 24.0856C24.6361 24.1708 24.8118 24.315 24.9354 24.5C25.059 24.685 25.125 24.9025 25.125 25.125C25.125 25.4234 25.0065 25.7095 24.7955 25.9205C24.5845 26.1315 24.2984 26.25 24 26.25ZM31.5 19.5H28.5V17.25C28.5 16.0565 28.0259 14.9119 27.182 14.068C26.3381 13.2241 25.1935 12.75 24 12.75C22.8065 12.75 21.6619 13.2241 20.818 14.068C19.9741 14.9119 19.5 16.0565 19.5 17.25V19.5H16.5C16.1022 19.5 15.7206 19.658 15.4393 19.9393C15.158 20.2206 15 20.6022 15 21V31.5C15 31.8978 15.158 32.2794 15.4393 32.5607C15.7206 32.842 16.1022 33 16.5 33H31.5C31.8978 33 32.2794 32.842 32.5607 32.5607C32.842 32.2794 33 31.8978 33 31.5V21C33 20.6022 32.842 20.2206 32.5607 19.9393C32.2794 19.658 31.8978 19.5 31.5 19.5ZM21 17.25C21 16.4544 21.3161 15.6913 21.8787 15.1287C22.4413 14.5661 23.2044 14.25 24 14.25C24.7956 14.25 25.5587 14.5661 26.1213 15.1287C26.6839 15.6913 27 16.4544 27 17.25V19.5H21V17.25ZM31.5 31.5H16.5V21H31.5V31.5Z" fill="#453848"/>
<path d="M48 0H24L48 4.5V0Z" fill="#3C4A41"/>
</svg>
